<svg width="58" height="58" viewBox="0 0 58 58" fill="none" xmlns="http://www.w3.org/2000/svg">
<g clip-path="url(#clip0_220_7812)">
<path d="M29.2711 35.4833V12.7086C29.2711 10.3242 27.3377 8.37793 24.9404 8.37793C22.5431 8.37793 20.6097 10.3113 20.6097 12.7086V35.4833C18.6764 36.8495 17.4004 39.0922 17.4004 41.6442C17.4004 45.8073 20.7773 49.1713 24.9404 49.1713C29.1035 49.1713 32.4804 45.8073 32.4804 41.6442C32.4804 39.0922 31.2044 36.8495 29.2711 35.4833Z" stroke="#8B8C8E" stroke-miterlimit="10"/>
<path d="M29.1297 41.6442C29.1297 43.9513 27.248 45.8331 24.9408 45.8331C22.6337 45.8331 20.752 43.9513 20.752 41.6442C20.752 39.3371 22.6337 37.4553 24.9408 37.4553C27.248 37.4553 29.1297 39.3371 29.1297 41.6442Z" fill="#8B8C8E"/>
<path d="M32.79 32.738H38.0615M32.79 24.6695H38.0615M32.79 16.6011H38.0615M32.79 28.7037H40.6908M32.79 20.6353H40.6908M32.79 12.554H40.6908M24.9277 40.4068V17.1553" stroke="#8B8C8E" stroke-miterlimit="10" stroke-linecap="round"/>
</g>
<defs>
<clipPath id="clip0_220_7812">
<rect width="24.5791" height="42.0951" fill="white" transform="translate(16.7559 7.7334)"/>
</clipPath>
</defs>
</svg>
