<svg width="58" height="58" viewBox="0 0 58 58" fill="none" xmlns="http://www.w3.org/2000/svg">
<path d="M26.7786 43.4095C26.8819 43.4093 26.9836 43.3839 27.0749 43.3353C27.1661 43.2867 27.244 43.2165 27.3018 43.1308C27.3596 43.0451 27.3955 42.9466 27.4063 42.8438C27.4171 42.741 27.4026 42.6371 27.364 42.5413L22.9321 31.5607C22.8694 31.4054 22.7475 31.2813 22.5934 31.2158C22.4392 31.1503 22.2653 31.1487 22.11 31.2114C21.9547 31.2741 21.8306 31.396 21.7651 31.5502C21.6996 31.7043 21.6981 31.8782 21.7608 32.0335L26.1928 43.014C26.2399 43.1308 26.3208 43.2309 26.4252 43.3013C26.5295 43.3718 26.6526 43.4095 26.7786 43.4095Z" fill="#8B8C8E"/>
<path d="M24.0654 47.5599C23.9752 47.7978 23.9331 48.0512 23.9416 48.3055C23.95 48.5597 24.0087 48.8098 24.1145 49.0412L24.6865 50.3025C24.8885 50.7478 25.2514 51.1002 25.7025 51.2889C26.1535 51.4777 26.6593 51.4889 27.1182 51.3202L27.7828 52.7928C28.0128 53.2967 28.3828 53.7238 28.8488 54.023C29.3148 54.3223 29.8571 54.4812 30.411 54.4807C30.7971 54.4809 31.1792 54.4022 31.5338 54.2493C32.2118 53.9584 32.7516 53.4174 33.0409 52.7387C33.3302 52.0601 33.3467 51.296 33.0871 50.6055L26.0252 31.7545C25.9965 31.6762 25.9527 31.6044 25.8961 31.5431C25.8396 31.4819 25.7715 31.4324 25.6958 31.3976C25.62 31.3628 25.5381 31.3433 25.4548 31.3403C25.3715 31.3373 25.2885 31.3508 25.2104 31.3801C25.1324 31.4093 25.0609 31.4537 25 31.5107C24.9392 31.5677 24.8903 31.6362 24.8561 31.7122C24.8218 31.7882 24.803 31.8702 24.8006 31.9535C24.7982 32.0368 24.8123 32.1198 24.8422 32.1976L31.9045 51.0485C32.0505 51.4391 32.0389 51.8712 31.8724 52.2534C31.7058 52.6357 31.3971 52.9382 31.0117 53.0972C30.6262 53.2562 30.194 53.2591 29.8064 53.1054C29.4187 52.9517 29.106 52.6534 28.9342 52.2734L28.0114 50.2289C27.9773 50.1533 27.9285 50.0851 27.8679 50.0283C27.8073 49.9714 27.7362 49.9271 27.6585 49.8978C27.5808 49.8686 27.498 49.8549 27.415 49.8576C27.332 49.8603 27.2504 49.8794 27.1748 49.9137L26.7281 50.1162C26.5655 50.19 26.3803 50.1961 26.2131 50.1333C26.046 50.0705 25.9107 49.9438 25.8369 49.7813L25.2648 48.52C25.2283 48.4395 25.208 48.3525 25.2051 48.2641C25.2022 48.1758 25.2168 48.0877 25.2479 48.0049C25.2791 47.9222 25.3262 47.8464 25.3867 47.7819C25.4471 47.7173 25.5197 47.6654 25.6003 47.6289L26.0534 47.423C26.2057 47.3538 26.3244 47.2271 26.3834 47.0706C26.4424 46.914 26.437 46.7405 26.3682 46.588L24.9808 43.5132C24.9467 43.4375 24.8979 43.3692 24.8374 43.3124C24.7768 43.2556 24.7056 43.2112 24.6279 43.1819C24.5502 43.1527 24.4674 43.139 24.3844 43.1417C24.3014 43.1445 24.2198 43.1636 24.1441 43.1979L23.6844 43.4064C23.5218 43.4798 23.3366 43.4858 23.1696 43.423C23.0025 43.3601 22.8672 43.2336 22.7933 43.0712L22.2212 41.8099C22.1475 41.6473 22.1414 41.4621 22.2042 41.295C22.2671 41.1279 22.3937 40.9925 22.5563 40.9188L23.0229 40.7072C23.1753 40.6382 23.2941 40.5115 23.3532 40.3549C23.4123 40.1983 23.4068 40.0247 23.3379 39.8722L22.1874 37.3225C22.1206 37.1746 21.9995 37.0581 21.8491 36.9971C21.6988 36.9361 21.5307 36.9353 21.3797 36.9947L20.7236 37.2538C20.5575 37.3193 20.3722 37.3161 20.2084 37.245C20.0446 37.1739 19.9157 37.0407 19.8501 36.8747L19.3417 35.5867C19.3092 35.5044 19.2933 35.4166 19.2948 35.3282C19.2963 35.2398 19.3152 35.1525 19.3504 35.0714C19.3856 34.9903 19.4364 34.917 19.5 34.8555C19.5635 34.794 19.6386 34.7457 19.7208 34.7133L20.1989 34.5245C20.2784 34.4931 20.3507 34.4459 20.4114 34.3857C20.4721 34.3255 20.52 34.2536 20.5521 34.1744C20.5843 34.0952 20.6 34.0103 20.5984 33.9248C20.5968 33.8394 20.5778 33.7551 20.5427 33.6772L19.9338 32.3276C19.8792 32.2057 19.7871 32.1043 19.671 32.0382C19.5549 31.9721 19.4208 31.9447 19.2881 31.9598C17.2184 32.1894 15.1293 31.7554 13.3223 30.7204C11.5153 29.6854 10.0839 28.103 9.23467 26.2016C8.38548 24.3002 8.16243 22.1782 8.5977 20.1418C9.03297 18.1053 10.1041 16.2599 11.6564 14.8718C11.7192 14.8168 11.7706 14.7499 11.8074 14.675C11.8442 14.6 11.8658 14.5185 11.871 14.4351C11.8761 14.3518 11.8646 14.2682 11.8372 14.1893C11.8098 14.1104 11.767 14.0377 11.7114 13.9755C11.6557 13.9132 11.5882 13.8626 11.5129 13.8266C11.4375 13.7906 11.3557 13.7699 11.2723 13.7657C11.1889 13.7615 11.1055 13.7739 11.0269 13.8021C10.9483 13.8304 10.8761 13.874 10.8144 13.9303C9.08982 15.4697 7.88967 17.5098 7.38195 19.765C6.87424 22.0203 7.08439 24.3778 7.98298 26.5077C8.88157 28.6376 10.4236 30.4333 12.3933 31.6433C14.363 32.8534 16.6618 33.4173 18.9679 33.2561L19.1216 33.5969C18.6829 33.8104 18.341 34.1815 18.164 34.6361C17.9871 35.0908 17.9882 35.5955 18.1672 36.0493L18.6756 37.3375C18.8647 37.8148 19.2353 38.1977 19.7063 38.4021C20.1773 38.6065 20.7101 38.6158 21.1878 38.4279L21.2841 38.3898L21.9292 39.8194C21.4934 40.0502 21.1621 40.4385 21.0027 40.9051C20.8433 41.3718 20.8679 41.8816 21.0714 42.3307L21.6436 43.5919C21.8465 44.0395 22.212 44.3931 22.6659 44.5812C23.1199 44.7693 23.6284 44.7778 24.0884 44.6049L24.9598 46.5361C24.5469 46.757 24.2288 47.1211 24.0654 47.5599Z" fill="#8B8C8E"/>
<path d="M35.1144 22.8346C35.0179 22.9715 34.9797 23.1412 35.0082 23.3062C35.0367 23.4713 35.1296 23.6182 35.2664 23.7148L51.0378 34.8384C51.3781 35.0791 51.6115 35.4426 51.6889 35.8522C51.7663 36.2618 51.6816 36.6854 51.4526 37.0337C51.2236 37.382 50.8682 37.6278 50.4615 37.7191C50.0548 37.8104 49.6285 37.7401 49.2726 37.5231L47.3582 36.3527C47.2873 36.3094 47.2086 36.2805 47.1266 36.2677C47.0446 36.2548 46.9608 36.2582 46.8801 36.2778C46.7995 36.2973 46.7234 36.3325 46.6563 36.3815C46.5893 36.4304 46.5325 36.4921 46.4893 36.563L46.234 36.9821C46.1411 37.1346 45.9914 37.2439 45.818 37.286C45.6445 37.3282 45.4614 37.2997 45.3089 37.2069L44.126 36.4865C43.9736 36.3936 43.8642 36.244 43.8221 36.0705C43.7799 35.897 43.8084 35.7139 43.9013 35.5615L44.1603 35.1359C44.2473 34.9929 44.2741 34.8214 44.2347 34.6588C44.1953 34.4962 44.093 34.3559 43.9503 34.2686L41.073 32.5086C41.0021 32.4653 40.9235 32.4364 40.8414 32.4235C40.7594 32.4107 40.6757 32.4141 40.595 32.4336C40.5143 32.4532 40.4382 32.4884 40.3711 32.5373C40.3041 32.5863 40.2473 32.648 40.2041 32.7189L39.9413 33.15C39.8485 33.3025 39.6988 33.4119 39.5254 33.4541C39.3519 33.4963 39.1688 33.4678 39.0162 33.375L37.8335 32.6548C37.6811 32.5617 37.5718 32.4121 37.5297 32.2386C37.4875 32.0651 37.5158 31.882 37.6085 31.7294L37.8749 31.2918C37.962 31.1489 37.9888 30.9773 37.9494 30.8147C37.9101 30.6521 37.8078 30.5118 37.6651 30.4245L35.2789 28.9651C35.1404 28.8804 34.9747 28.8523 34.8161 28.8865C34.6575 28.9207 34.5181 29.0147 34.4269 29.1489L34.0304 29.7325C33.9299 29.88 33.775 29.9817 33.5997 30.0152C33.4244 30.0486 33.2429 30.0112 33.0951 29.911L31.9498 29.1326C31.8023 29.0322 31.7006 28.8773 31.6672 28.702C31.6337 28.5266 31.6712 28.3452 31.7713 28.1975L32.0602 27.7723C32.1083 27.7017 32.1415 27.622 32.1578 27.5381C32.1741 27.4542 32.1733 27.3678 32.1553 27.2843C32.1373 27.2007 32.1025 27.1217 32.0531 27.052C32.0036 26.9823 31.9405 26.9233 31.8676 26.8787L30.6045 26.1062C30.4906 26.0365 30.3574 26.0047 30.2243 26.0154C30.0911 26.0262 29.9648 26.0788 29.8635 26.1659C28.8397 27.0445 27.6458 27.7028 26.3564 28.0996C25.067 28.4964 23.7096 28.6233 22.369 28.4724C21.0283 28.3215 19.7332 27.8959 18.5642 27.2223C17.3953 26.5487 16.3777 25.6415 15.5749 24.5573C14.7721 23.473 14.2013 22.235 13.8981 20.9204C13.5949 19.6058 13.5658 18.2428 13.8126 16.9165C14.0595 15.5902 14.5769 14.3289 15.3327 13.2114C16.0885 12.0939 17.0665 11.144 18.2056 10.4212C18.276 10.3769 18.3371 10.3191 18.3851 10.2512C18.4332 10.1832 18.4674 10.1065 18.4857 10.0253C18.504 9.94407 18.506 9.86006 18.4917 9.77807C18.4775 9.69607 18.4471 9.61771 18.4025 9.54748C18.3578 9.47726 18.2997 9.41655 18.2315 9.36886C18.1633 9.32117 18.0863 9.28742 18.005 9.26958C17.9237 9.25173 17.8397 9.25012 17.7578 9.26486C17.6759 9.27959 17.5977 9.31036 17.5277 9.35542C16.2575 10.1604 15.1644 11.2155 14.3149 12.4563C13.4654 13.6972 12.8773 15.098 12.5864 16.5733C12.2954 18.0487 12.3078 19.5679 12.6226 21.0383C12.9374 22.5088 13.5481 23.8998 14.4176 25.1268C15.2871 26.3537 16.3972 27.3909 17.6802 28.1752C18.9633 28.9595 20.3925 29.4746 21.8809 29.689C23.3694 29.9034 24.8859 29.8127 26.3381 29.4224C27.7904 29.0321 29.1481 28.3503 30.3285 27.4187L30.6474 27.6136C30.4051 28.0371 30.3315 28.5363 30.4412 29.0116C30.551 29.4869 30.8361 29.9034 31.2395 30.1776L32.3849 30.9561C32.8099 31.2441 33.3318 31.3518 33.8361 31.2555C34.3403 31.1593 34.7859 30.867 35.075 30.4427L35.1332 30.357L36.471 31.1753C36.2413 31.6115 36.1864 32.1188 36.3174 32.5941C36.4484 33.0693 36.7555 33.4769 37.1762 33.7338L38.3591 34.4541C38.7789 34.7096 39.28 34.7959 39.7611 34.6957C40.2422 34.5955 40.6672 34.3163 40.9501 33.9145L42.7574 35.02C42.5314 35.4555 42.4793 35.9606 42.6114 36.4331C42.7436 36.9057 43.0501 37.3104 43.4692 37.5656L44.652 38.2859C45.0696 38.5401 45.568 38.627 46.047 38.5291C46.5261 38.4312 46.9504 38.1558 47.2348 37.7581L48.6132 38.6009C49.0608 38.8748 49.5755 39.0194 50.1002 39.0186C50.7108 39.0218 51.3064 38.8301 51.8004 38.4713C52.2945 38.1125 52.6611 37.6054 52.8469 37.0238C53.0327 36.4422 53.028 35.8165 52.8335 35.2378C52.639 34.659 52.2648 34.1575 51.7655 33.8062L35.9946 22.6826C35.9268 22.6348 35.8503 22.6007 35.7694 22.5825C35.6884 22.5642 35.6047 22.5621 35.523 22.5762C35.4412 22.5903 35.3631 22.6204 35.293 22.6648C35.2229 22.7091 35.1622 22.7668 35.1144 22.8346Z" fill="#8B8C8E"/>
<path d="M7.56125 16.8269C7.62743 16.7769 7.68311 16.7144 7.7251 16.6428C7.7671 16.5713 7.79458 16.4922 7.80599 16.41C7.81739 16.3279 7.81249 16.2443 7.79157 16.164C7.77064 16.0838 7.73411 16.0084 7.68405 15.9423C7.01883 15.0607 6.57281 14.0336 6.38278 12.9457C6.19275 11.8578 6.26417 10.7403 6.59114 9.6854C6.91812 8.63053 7.49127 7.66854 8.26329 6.87883C9.03532 6.08912 9.98408 5.49434 11.0313 5.14356C12.0785 4.79278 13.1941 4.69608 14.286 4.86142C15.3779 5.02676 16.4149 5.44942 17.3113 6.0945C18.2077 6.73958 18.9378 7.58859 19.4415 8.57146C19.9451 9.55432 20.2077 10.6429 20.2077 11.7473C20.2074 12.0979 20.1807 12.448 20.1279 12.7947C19.105 12.8096 18.1189 13.1785 17.3375 13.8387C16.556 14.4989 16.0276 15.4095 15.842 16.4155C15.6564 17.4215 15.8252 18.4608 16.3197 19.3563C16.8141 20.2519 17.6037 20.9484 18.5539 21.3273C19.5041 21.7062 20.5563 21.744 21.5313 21.4344C22.5063 21.1248 23.3439 20.4869 23.9014 19.6292C24.459 18.7716 24.7021 17.7472 24.5893 16.7304C24.4766 15.7137 24.0149 14.7674 23.283 14.0528C23.1632 13.9357 23.0018 13.871 22.8343 13.873C22.6668 13.875 22.5069 13.9434 22.3899 14.0632C22.2728 14.183 22.2082 14.3444 22.2101 14.5119C22.2121 14.6794 22.2805 14.8392 22.4003 14.9563C22.914 15.4567 23.2424 16.1168 23.3317 16.8284C23.4211 17.5399 23.2661 18.2607 22.8921 18.8727C22.5182 19.4846 21.9474 19.9513 21.2734 20.1964C20.5995 20.4414 19.8622 20.4503 19.1826 20.2214C18.5029 19.9926 17.9212 19.5397 17.5326 18.9369C17.1441 18.3341 16.9719 17.6172 17.0442 16.9037C17.1165 16.1902 17.429 15.5224 17.9305 15.0098C18.432 14.4972 19.0928 14.1702 19.8046 14.0823C19.4908 14.9658 19.0014 15.7767 18.3659 16.4661C18.3097 16.5271 18.266 16.5986 18.2374 16.6764C18.2088 16.7543 18.1959 16.837 18.1992 16.9199C18.2026 17.0028 18.2223 17.0842 18.2571 17.1595C18.292 17.2347 18.3413 17.3024 18.4023 17.3586C18.4633 17.4149 18.5347 17.4585 18.6126 17.4871C18.6905 17.5157 18.7732 17.5287 18.8561 17.5253C18.9389 17.5219 19.0204 17.5023 19.0956 17.4674C19.1709 17.4326 19.2386 17.3833 19.2948 17.3223C20.2862 16.2471 20.9728 14.9268 21.2837 13.4977C21.5947 12.0685 21.5186 10.5823 21.0635 9.19242C22.7448 8.76847 24.5084 8.79712 26.1751 9.27547C27.8418 9.75382 29.3521 10.6648 30.5527 11.9159C31.7533 13.167 32.6013 14.7136 33.0106 16.3986C33.4199 18.0835 33.3759 19.8468 32.883 21.5093C32.8822 21.5115 32.8823 21.5139 32.8816 21.5162C32.6249 22.3825 32.2492 23.2089 31.7651 23.9719C31.6768 24.1111 31.6463 24.2795 31.6804 24.4408C31.7145 24.6022 31.8103 24.7439 31.9474 24.8355L41.7925 31.4149C41.9318 31.5081 42.1024 31.542 42.2667 31.5094C42.4311 31.4768 42.5757 31.3802 42.6689 31.2409C42.762 31.1016 42.796 30.931 42.7633 30.7666C42.7307 30.6023 42.6341 30.4576 42.4948 30.3645L33.1491 24.1185C33.5814 23.3455 33.919 22.5231 34.1546 21.6693C34.1586 21.6552 34.1589 21.641 34.1618 21.6269C34.6736 19.7436 34.6793 17.7587 34.1783 15.8726C33.6773 13.9865 32.6875 12.2659 31.3087 10.8849C29.9299 9.50377 28.2111 8.51102 26.3258 8.0069C24.4405 7.50277 22.4556 7.50513 20.5715 8.01373C20.0536 6.997 19.3298 6.09914 18.4462 5.37722C17.5625 4.6553 16.5384 4.1251 15.4388 3.82034C14.3392 3.51557 13.1882 3.4429 12.0591 3.60694C10.9299 3.77098 9.84715 4.16814 8.87974 4.77319C7.91232 5.37823 7.08136 6.17793 6.43967 7.12144C5.79799 8.06495 5.3596 9.13164 5.1524 10.2537C4.94519 11.3758 4.97369 12.5287 5.23607 13.6391C5.49846 14.7496 5.98901 15.7933 6.67652 16.704C6.72654 16.7702 6.7891 16.8258 6.86063 16.8678C6.93217 16.9098 7.01127 16.9373 7.09343 16.9487C7.17558 16.9601 7.25919 16.9552 7.33945 16.9343C7.41972 16.9134 7.49509 16.8769 7.56125 16.8269Z" fill="#8B8C8E"/>
</svg>
