<svg width="58" height="58" viewBox="0 0 58 58" fill="none" xmlns="http://www.w3.org/2000/svg">
<path d="M25.2506 15.2733L22.6471 12.6826L12.6582 22.6844L15.2875 25.3008C14.4111 27.1182 14.6044 29.0515 16.2929 30.7786L35.9226 50.4084C36.6186 51.1044 37.7786 51.0657 38.5262 50.3182L50.2809 38.5635C51.0284 37.816 51.0671 36.656 50.3711 35.96L30.7413 16.3302C29.388 15.0284 27.3258 14.2035 25.2506 15.2733Z" stroke="#8B8C8E" stroke-miterlimit="10"/>
<path d="M16.8477 29.1031C17.0668 29.4769 17.3374 29.8378 17.6983 30.1986L35.9748 48.4751C36.6192 49.1195 37.6632 49.1324 38.3077 48.4751L48.477 38.3058C49.1214 37.6613 49.1085 36.6173 48.477 35.9729L30.2005 17.6964C29.8783 17.3742 29.5045 17.0906 29.105 16.8586L16.8734 29.0902L16.8477 29.1031Z" fill="#8B8C8E"/>
<path d="M9.52539 34.2457L14.9903 34.22V42.3915L22.7365 41.992V47.8177" stroke="#8B8C8E" stroke-miterlimit="10" stroke-linecap="round"/>
<path d="M10.9822 36.1403L10.1573 34.2456L10.9564 32.3252L6.44531 34.2585L10.9822 36.1403Z" fill="#8B8C8E"/>
<path d="M20.8301 46.374L22.7376 47.186L24.6452 46.374L22.7376 50.898L20.8301 46.374Z" fill="#8B8C8E"/>
<path d="M34.2465 9.5249L34.2207 14.9898H42.3923L41.9927 22.736H47.8185" stroke="#8B8C8E" stroke-miterlimit="10" stroke-linecap="round"/>
<path d="M32.3262 10.9554L34.2466 10.1563L36.1413 10.9812L34.2595 6.44434L32.3262 10.9554Z" fill="#8B8C8E"/>
<path d="M46.375 24.6435L47.187 22.7359L46.375 20.8284L50.899 22.7359L46.375 24.6435Z" fill="#8B8C8E"/>
<path d="M24.1281 10.8909C24.7081 11.4709 24.5663 12.5278 23.8187 13.2754L13.237 23.8572C12.4894 24.6047 11.4325 24.7336 10.8525 24.1665L8.9063 22.2074C8.3263 21.6403 8.46807 20.5705 9.21563 19.8229L19.7845 9.24115C20.5321 8.4936 21.6018 8.36471 22.169 8.93182L24.1152 10.878L24.1281 10.8909Z" fill="white"/>
<path d="M24.1281 10.8909C24.7081 11.4709 24.5663 12.5278 23.8187 13.2754L13.237 23.8572C12.4894 24.6047 11.4325 24.7336 10.8525 24.1665L8.9063 22.2074C8.3263 21.6403 8.46807 20.5705 9.21563 19.8229L19.7845 9.24115C20.5321 8.4936 21.6018 8.36471 22.169 8.93182L24.1152 10.878L24.1281 10.8909Z" stroke="#8B8C8E" stroke-miterlimit="10"/>
<path d="M27.4794 23.9217C26.835 23.2772 26.835 22.2332 27.4794 21.5888C28.1239 20.9444 29.1679 20.9444 29.8123 21.5888C30.4568 22.2332 30.4568 23.2772 29.8123 23.9217C29.1679 24.5661 28.1239 24.5661 27.4794 23.9217Z" fill="white"/>
<path d="M25.081 31.1652C25.7254 30.5208 26.7694 30.5208 27.4139 31.1652C28.0583 31.8097 28.0583 32.8537 27.4139 33.4981C26.7694 34.1426 25.7254 34.1426 25.081 33.4981C24.4365 32.8537 24.4365 31.8097 25.081 31.1652Z" fill="white"/>
<path d="M32.9052 41.3216C32.2608 40.6771 32.2608 39.6331 32.9052 38.9887C33.5497 38.3443 34.5937 38.3443 35.2381 38.9887C35.8825 39.6331 35.8825 40.6771 35.2381 41.3216C34.5937 41.966 33.5497 41.966 32.9052 41.3216Z" fill="white"/>
<path d="M42.997 39.4268C42.3526 38.7824 42.3526 37.7384 42.997 37.0939C43.6414 36.4495 44.6854 36.4495 45.3299 37.0939C45.9743 37.7384 45.9743 38.7824 45.3299 39.4268C44.6854 40.0713 43.6414 40.0713 42.997 39.4268Z" fill="white"/>
<path d="M35.2392 31.6807C34.5947 31.0363 34.5947 29.9923 35.2392 29.3478C35.8836 28.7034 36.9276 28.7034 37.5721 29.3478C38.2165 29.9923 38.2165 31.0363 37.5721 31.6807C36.9276 32.3252 35.8836 32.3252 35.2392 31.6807Z" fill="white"/>
</svg>
