<svg width="58" height="58" viewBox="0 0 58 58" fill="none" xmlns="http://www.w3.org/2000/svg">
<g clip-path="url(#clip0_220_7903)">
<path d="M35.9863 16.5107V12.8374H21.8343V16.5494C19.9397 17.2196 18.7152 18.7147 18.6895 21.125V48.8876C18.6895 49.8672 19.5401 50.6663 20.597 50.6663H37.2237C38.2806 50.6663 39.1183 49.8672 39.1183 48.8876V21.125C39.0926 19.2432 38.2032 17.2067 35.9863 16.4978V16.5107Z" stroke="#8B8C8E" stroke-miterlimit="10"/>
<path d="M38.2936 12.6055C38.2936 13.4175 37.4429 14.0748 36.386 14.0748H21.422C20.378 14.0748 19.5273 13.4175 19.5273 12.6055V9.84726C19.5273 9.03526 20.378 8.37793 21.4349 8.37793H36.386C37.43 8.37793 38.2936 9.03526 38.2936 9.84726V12.6055Z" fill="white"/>
<path d="M38.2936 12.6055C38.2936 13.4175 37.4429 14.0748 36.386 14.0748H21.422C20.378 14.0748 19.5273 13.4175 19.5273 12.6055V9.84726C19.5273 9.03526 20.378 8.37793 21.4349 8.37793H36.386C37.43 8.37793 38.2936 9.03526 38.2936 9.84726V12.6055Z" stroke="#8B8C8E" stroke-miterlimit="10"/>
<path d="M20 48V48.9079C20 48.959 20.7489 49.0007 21.6818 49H36.3314C37.2511 49 38 48.959 38 48.9079V48H20Z" fill="#8B8C8E"/>
</g>
<defs>
<clipPath id="clip0_220_7903">
<rect width="21.7307" height="43.5773" fill="white" transform="translate(18.0449 7.7334)"/>
</clipPath>
</defs>
</svg>
