<svg width="28" height="28" viewBox="0 0 28 28" fill="none" xmlns="http://www.w3.org/2000/svg">
<path d="M3.5 7H5.83333H24.5" stroke="#8B8C8E" stroke-width="2" stroke-linecap="round" stroke-linejoin="round"/>
<path d="M22.1673 7.00004V23.3334C22.1673 23.9522 21.9215 24.5457 21.4839 24.9833C21.0463 25.4209 20.4528 25.6667 19.834 25.6667H8.16732C7.54848 25.6667 6.95499 25.4209 6.5174 24.9833C6.07982 24.5457 5.83398 23.9522 5.83398 23.3334V7.00004M9.33398 7.00004V4.66671C9.33398 4.04787 9.57982 3.45438 10.0174 3.01679C10.455 2.57921 11.0485 2.33337 11.6673 2.33337H16.334C16.9528 2.33337 17.5463 2.57921 17.9839 3.01679C18.4215 3.45438 18.6673 4.04787 18.6673 4.66671V7.00004" stroke="#8B8C8E" stroke-width="2" stroke-linecap="round" stroke-linejoin="round"/>
</svg>
