<svg width="80" height="80" viewBox="0 0 80 80" fill="none" xmlns="http://www.w3.org/2000/svg">
<path d="M66.7758 12.6875V67.3125C66.7758 67.9755 66.5124 68.6114 66.0436 69.0803C65.5747 69.5491 64.9388 69.8125 64.2758 69.8125H25.1758C24.5127 69.8125 23.8769 69.5491 23.408 69.0803C22.9392 68.6114 22.6758 67.9755 22.6758 67.3125V28.8625L36.4258 10.1875H64.2758C64.9388 10.1875 65.5747 10.4509 66.0436 10.9197C66.5124 11.3886 66.7758 12.0245 66.7758 12.6875Z" fill="white"/>
<path d="M36.4258 10.2124V26.2499C36.4258 26.9129 36.1624 27.5488 35.6935 28.0177C35.2247 28.4865 34.5888 28.7499 33.9258 28.7499H22.7383L36.4258 10.2124Z" fill="#8B8C8E"/>
<path d="M49.8746 44.3374H15.7246C14.3439 44.3374 13.2246 45.4567 13.2246 46.8374V59.3874C13.2246 60.7681 14.3439 61.8874 15.7246 61.8874H49.8746C51.2553 61.8874 52.3746 60.7681 52.3746 59.3874V46.8374C52.3746 45.4567 51.2553 44.3374 49.8746 44.3374Z" fill="#FF3717"/>
<path d="M25.925 54.1251V56.8251H23.75V49.4126H26.75C27.3339 49.3811 27.9178 49.4748 28.4625 49.6876C28.8502 49.8631 29.1766 50.1504 29.4 50.5126C29.6261 50.89 29.7429 51.3227 29.7375 51.7626C29.7522 52.0817 29.6971 52.4003 29.5763 52.696C29.4554 52.9917 29.2715 53.2576 29.0375 53.4751C28.5164 53.9283 27.8397 54.1614 27.15 54.1251H25.925ZM25.925 52.5376H26.65C27.2875 52.5376 27.6 52.2876 27.6 51.8001C27.6 51.3126 27.3125 51.1001 26.725 51.1001H25.925V52.5376ZM30.55 56.8251V49.4126H33.2875C33.7864 49.375 34.2871 49.455 34.7495 49.646C35.2119 49.8371 35.6231 50.1339 35.95 50.5126C36.539 51.2353 36.8533 52.143 36.8375 53.0751C36.8903 54.0653 36.5487 55.0361 35.8875 55.7751C35.5736 56.1231 35.1868 56.3977 34.7547 56.5792C34.3226 56.7607 33.8558 56.8446 33.3875 56.8251H30.55ZM32.725 55.1126H33.2875C33.4746 55.1094 33.6574 55.0568 33.8177 54.9602C33.9779 54.8637 34.1098 54.7265 34.2 54.5626C34.4618 54.1121 34.5877 53.5955 34.5625 53.0751C34.5723 52.5887 34.4606 52.1075 34.2375 51.6751C34.1499 51.4991 34.0141 51.3516 33.8459 51.2498C33.6777 51.148 33.4841 51.0961 33.2875 51.1001H32.725V55.1126ZM42.175 54.0501H39.875V56.8251H37.7625V49.4126H42.875V51.1751H39.875V52.4251H42.175V54.0501Z" fill="white"/>
</svg>
