<svg width="31" height="32" viewBox="0 0 31 32" fill="none" xmlns="http://www.w3.org/2000/svg">
<path d="M28.4154 22.3548V26.2298C28.4168 26.5895 28.3432 26.9456 28.199 27.2752C28.0549 27.6048 27.8436 27.9007 27.5785 28.1439C27.3134 28.3871 27.0005 28.5722 26.6597 28.6875C26.3189 28.8027 25.9578 28.8455 25.5995 28.8131C21.6249 28.3812 17.8069 27.0231 14.4525 24.8477C11.3316 22.8646 8.68561 20.2186 6.70246 17.0977C4.51952 13.728 3.16103 9.8915 2.73705 5.89897C2.70477 5.54178 2.74722 5.18178 2.86169 4.8419C2.97617 4.50201 3.16016 4.18969 3.40195 3.92481C3.64375 3.65993 3.93804 3.4483 4.26611 3.30339C4.59418 3.15848 4.94882 3.08347 5.30746 3.08313H9.18246C9.80932 3.07696 10.417 3.29894 10.8923 3.7077C11.3676 4.11645 11.6781 4.68408 11.7658 5.3048C11.9294 6.54489 12.2327 7.76249 12.67 8.93438C12.8437 9.3967 12.8814 9.89915 12.7783 10.3822C12.6753 10.8652 12.436 11.3086 12.0887 11.6598L10.4483 13.3002C12.2871 16.534 14.9645 19.2115 18.1983 21.0502L19.8387 19.4098C20.1899 19.0625 20.6333 18.8232 21.1163 18.7202C21.5994 18.6172 22.1018 18.6548 22.5641 18.8285C23.736 19.2658 24.9536 19.5692 26.1937 19.7327C26.8212 19.8212 27.3942 20.1373 27.8038 20.6207C28.2134 21.1042 28.4311 21.7213 28.4154 22.3548Z" stroke="#0049C3" stroke-width="3" stroke-linecap="round" stroke-linejoin="round"/>
</svg>
