<svg width="45" height="45" viewBox="0 0 45 45" fill="none" xmlns="http://www.w3.org/2000/svg">
<path d="M22.498 20.625C23.9814 20.625 25.4314 20.1851 26.6648 19.361C27.8982 18.5369 28.8595 17.3656 29.4271 15.9951C29.9948 14.6247 30.1433 13.1167 29.8539 11.6618C29.5645 10.207 28.8502 8.8706 27.8013 7.8217C26.7524 6.77281 25.4161 6.0585 23.9612 5.76911C22.5064 5.47972 20.9984 5.62825 19.6279 6.19591C18.2575 6.76356 17.0861 7.72486 16.262 8.95823C15.4379 10.1916 14.998 11.6416 14.998 13.125C14.998 15.1141 15.7882 17.0218 17.1947 18.4283C18.6013 19.8348 20.5089 20.625 22.498 20.625ZM33.748 39.375C34.2453 39.375 34.7222 39.1775 35.0739 38.8258C35.4255 38.4742 35.623 37.9973 35.623 37.5C35.623 34.019 34.2402 30.6806 31.7788 28.2192C29.3174 25.7578 25.979 24.375 22.498 24.375C19.0171 24.375 15.6787 25.7578 13.2173 28.2192C10.7559 30.6806 9.37305 34.019 9.37305 37.5C9.37305 37.9973 9.57059 38.4742 9.92222 38.8258C10.2739 39.1775 10.7508 39.375 11.248 39.375H33.748Z" fill="#1A1A1A"/>
</svg>
