<svg width="40" height="40" viewBox="0 0 40 40" fill="none" xmlns="http://www.w3.org/2000/svg">
<g clip-path="url(#clip0_138_1593)">
<path fill-rule="evenodd" clip-rule="evenodd" d="M20 0C31.0462 0 40 8.95385 40 20C40 31.0462 31.0462 40 20 40C8.95385 40 0 31.0462 0 20C0 8.95385 8.95385 0 20 0ZM21.1977 8.14617C22.5577 8.31617 23.6569 8.64386 24.8623 9.23232C26.0485 9.81232 26.8077 10.3615 27.8116 11.36C28.7523 12.3031 29.2746 13.0177 29.8277 14.1269C30.5985 15.6738 31.0377 17.5139 31.1123 19.5385C31.14 20.2292 31.12 20.3831 30.9623 20.5808C30.6623 20.9631 30.0015 20.9 29.7761 20.47C29.7054 20.3277 29.6854 20.2054 29.6615 19.6531C29.6223 18.8046 29.5631 18.2554 29.4446 17.6C28.9777 15.0308 27.7446 12.9785 25.7754 11.5062C24.1354 10.2746 22.4392 9.67463 20.2177 9.54463C19.4662 9.50078 19.3362 9.47307 19.1662 9.34307C18.8492 9.09384 18.8339 8.50999 19.1385 8.23768C19.3239 8.06845 19.4538 8.04382 20.0985 8.06382C20.4346 8.07536 20.9292 8.11539 21.1985 8.14692L21.1977 8.14617ZM12.1608 8.57309C12.2992 8.62078 12.5123 8.73077 12.6354 8.81C13.3862 9.30692 15.4777 11.9792 16.1615 13.3138C16.5531 14.0754 16.6831 14.64 16.5608 15.0585C16.4338 15.5085 16.2246 15.7454 15.2877 16.4992C14.9123 16.8031 14.56 17.1146 14.5054 17.1977C14.3631 17.4031 14.2477 17.8054 14.2477 18.09C14.2523 18.7493 14.6785 19.9454 15.24 20.8646C15.6754 21.5792 16.4539 22.4954 17.2246 23.1977C18.13 24.0261 18.9285 24.5907 19.83 25.0369C20.9885 25.6138 21.6961 25.76 22.2138 25.5185C22.3446 25.4592 22.4831 25.38 22.5262 25.3446C22.5654 25.3092 22.87 24.9385 23.2023 24.5277C23.8423 23.7223 23.9884 23.5923 24.4277 23.4423C24.9854 23.2531 25.5546 23.3038 26.1277 23.5961C26.5623 23.8215 27.5107 24.4092 28.1238 24.8354C28.93 25.4 30.6546 26.8054 30.8869 27.0854C31.2985 27.5908 31.3692 28.2385 31.0931 28.9523C30.8008 29.7062 29.6623 31.12 28.8669 31.7239C28.1477 32.2685 27.6377 32.4777 26.9654 32.5085C26.4115 32.5369 26.1831 32.4892 25.4754 32.1969C19.9246 29.9123 15.4931 26.5016 11.9754 21.8162C10.1369 19.3685 8.73692 16.8307 7.78076 14.1977C7.22307 12.6623 7.19616 11.9954 7.65386 11.21C7.85155 10.8785 8.69385 10.0569 9.30692 9.59923C10.3262 8.84154 10.7969 8.56075 11.1723 8.48229C11.4292 8.4269 11.8762 8.47078 12.1608 8.57309ZM21.4708 11.0084C23.8708 11.36 25.7285 12.4731 26.9462 14.2808C27.63 15.2992 28.0569 16.4954 28.2031 17.7777C28.2546 18.2477 28.2546 19.1046 28.1992 19.2469C28.1477 19.3808 27.9815 19.5623 27.8392 19.6369C27.6854 19.7162 27.3569 19.7085 27.1754 19.6138C26.8708 19.46 26.78 19.2146 26.78 18.5523C26.78 17.5292 26.5146 16.4523 26.0569 15.6146C25.5412 14.6658 24.779 13.8736 23.8508 13.3215C23.0561 12.8477 21.8816 12.4969 20.8108 12.41C20.4231 12.3785 20.2092 12.2992 20.0631 12.1292C19.9538 12.0091 19.8885 11.8554 19.8777 11.6934C19.8669 11.5313 19.9114 11.3704 20.0039 11.2369C20.2092 10.9177 20.5261 10.8661 21.4708 11.0084ZM22.3123 13.9885C23.0915 14.1546 23.6885 14.45 24.1985 14.9284C24.8546 15.5477 25.2139 16.2977 25.3723 17.3754C25.4792 18.0777 25.4354 18.3546 25.1869 18.5831C24.9531 18.7962 24.5223 18.8046 24.2615 18.6031C24.0715 18.4608 24.0123 18.3108 23.9692 17.9046C23.9177 17.3638 23.8231 16.9846 23.6607 16.6331C23.3131 15.8869 22.7 15.5008 21.6646 15.3739C21.1777 15.3146 21.0315 15.26 20.8738 15.0739C20.5854 14.7308 20.6954 14.1738 21.0954 13.9692C21.2454 13.8938 21.3085 13.8862 21.6408 13.9054C21.8662 13.9187 22.0904 13.9465 22.3123 13.9885Z" fill="#7F4DA0"/>
</g>
<defs>
<clipPath id="clip0_138_1593">
<rect width="40" height="40" fill="white"/>
</clipPath>
</defs>
</svg>
