<svg width="56" height="56" viewBox="0 0 56 56" fill="none" xmlns="http://www.w3.org/2000/svg">
<path d="M39.1013 16.3348C38.1063 15.2953 36.8737 14.3894 35.5372 13.5875C34.2007 12.8005 32.686 12.2362 31.1416 11.8204C30.3545 11.657 29.5674 11.4937 28.7507 11.4343C28.3497 11.3897 27.9488 11.3452 27.5478 11.3749H26.2707C24.9045 11.4937 23.1225 11.8055 21.7117 12.3401C20.2564 12.9044 18.9051 13.6024 17.7467 14.4785C16.5884 15.3695 15.5638 16.32 14.7618 17.3743C14.3312 17.8644 14.0045 18.4287 13.6629 18.9336C13.3511 19.4533 13.0838 19.9879 12.8313 20.4929C12.6234 21.0275 12.3858 21.5027 12.2373 21.9927C12.1036 22.4828 11.9403 22.9431 11.8364 23.3886C11.7473 23.8341 11.673 24.2499 11.5987 24.6361C11.5542 25.0222 11.5245 25.3786 11.4948 25.7053C11.4651 26.032 11.4354 26.3141 11.4502 26.5666V27.7249L11.5245 27.2051C11.5393 27.0418 11.569 26.819 11.5987 26.5814C11.6136 26.329 11.673 26.0617 11.7473 25.7498C11.8215 25.438 11.8809 25.0964 11.97 24.7251C12.0888 24.3687 12.2076 23.9678 12.3561 23.552C12.5046 23.1362 12.7125 22.7204 12.9056 22.2749C13.1135 21.8294 13.3808 21.3987 13.6332 20.9384C13.9302 20.4929 14.2421 20.0325 14.5836 19.587C14.9549 19.1563 15.3113 18.696 15.7568 18.295C16.5884 17.4337 17.6279 16.7061 18.7417 16.0527C19.8554 15.4141 21.1177 14.9686 22.3948 14.6419C23.0482 14.5231 23.7016 14.3746 24.3254 14.3597C24.9045 14.2706 25.7064 14.33 26.4192 14.33C26.2707 14.33 26.3895 14.33 26.3598 14.33H26.4638L26.5826 14.3597L26.835 14.3894L27.3251 14.4488C27.6518 14.4785 27.9636 14.5528 28.2903 14.627C28.9289 14.7458 29.5377 14.9686 30.1466 15.1616C31.3198 15.6369 32.4335 16.216 33.3691 16.9585C34.3047 17.701 35.1363 18.4732 35.76 19.3494C36.1164 19.7503 36.354 20.2107 36.6361 20.6265C36.8886 21.0572 37.0965 21.4878 37.2895 21.9036C37.438 22.3343 37.6311 22.7352 37.7499 23.1213C37.8538 23.5223 37.9875 23.8935 38.0469 24.2499C38.1063 24.6063 38.1657 24.9479 38.2251 25.2598C38.2399 25.5419 38.2697 25.7944 38.2845 26.032L38.3142 26.3587V26.7448C38.3142 26.9972 38.3142 27.2051 38.3142 27.3833V27.9031C38.3142 28.0219 38.3142 28.1555 38.3142 28.2743C38.4924 29.8782 39.9477 31.0365 41.5516 30.8434C43.1554 30.6652 44.3137 29.2099 44.1206 27.6061L44.0612 27.0863L43.987 26.4626C43.9721 26.329 43.9573 26.1953 43.9424 26.0617L43.8385 25.4825C43.7642 25.0816 43.6751 24.6361 43.5712 24.1608C43.4375 23.7302 43.289 23.255 43.1257 22.7501C42.9623 22.26 42.7098 21.7403 42.4871 21.2057C42.2495 20.6711 41.9228 20.1364 41.6258 19.587C41.2842 19.0524 40.913 18.4881 40.4972 17.9535C40.0517 17.4337 39.6359 16.8694 39.1013 16.3794V16.3348Z" fill="#8B8C8E"/>
<path d="M27.6077 4.78223C14.5989 4.78223 4.01074 15.3704 4.01074 28.3791C4.01074 41.3879 14.5989 51.9761 27.6077 51.9761C40.6164 51.9761 51.2046 41.3879 51.2046 28.3791C51.2046 15.3704 40.6164 4.78223 27.6077 4.78223ZM27.6077 49.6446C15.8909 49.6446 6.34223 40.1108 6.34223 28.3791C6.34223 16.6475 15.876 7.1137 27.6077 7.1137C39.3393 7.1137 48.8731 16.6475 48.8731 28.3791C48.8731 40.1108 39.3393 49.6446 27.6077 49.6446Z" fill="#8B8C8E"/>
<path d="M27.6059 8.84985C21.6064 8.84985 15.5327 11.6417 11.7162 16.1264C8.64223 19.7499 7.35026 24.1307 8.07792 28.4818C8.65708 31.9864 10.1272 32.5804 17.9384 32.5804C19.5719 32.5804 21.5025 32.5507 23.7448 32.521C24.2794 32.521 24.8289 32.521 25.408 32.5062C26.1209 32.5062 26.8485 32.4913 27.6208 32.4765C28.1999 32.4765 28.7642 32.4765 29.3137 32.4616C31.4818 32.4468 33.3826 32.4616 35.0904 32.4616C42.0403 32.4616 44.9212 32.4765 46.2874 31.1103C46.8962 30.5163 47.1636 29.6698 47.1636 28.3927C47.1636 17.6263 38.402 8.84985 27.6208 8.84985H27.6059ZM45.4558 30.2786C44.4311 31.3033 41.2977 31.2885 35.0755 31.2885C33.5311 31.2885 31.8233 31.2885 29.9076 31.2885C29.9522 31.1103 29.9671 30.9321 29.9671 30.739C29.9671 29.2837 28.7939 28.1105 27.3386 28.1105C26.997 28.1105 26.6852 28.1848 26.3882 28.2887C26.1357 27.7838 25.8536 27.2195 25.5417 26.6255C25.1705 25.8978 24.7398 25.1405 24.324 24.3831C24.1161 23.997 23.923 23.6109 23.7448 23.21C23.5666 22.809 23.3736 22.4377 23.1508 22.111C22.6756 21.4576 22.0519 20.9824 21.4876 20.5963C21.2055 20.4033 20.9233 20.2548 20.656 20.1211C20.3887 19.9875 20.1511 19.8835 19.9283 19.8093C19.7204 19.735 19.5423 19.6756 19.4086 19.6459L19.2156 19.6014L18.9334 19.8093V20.0172C18.9185 20.1508 18.9185 20.329 18.9334 20.5666C18.9334 20.7894 18.9779 21.0567 19.0225 21.3537C19.067 21.6507 19.1413 21.9625 19.2452 22.2893C19.4531 22.9427 19.7502 23.6703 20.2402 24.3089C20.4927 24.6207 20.8045 24.9177 21.1312 25.1999C21.4579 25.482 21.7846 25.779 22.0965 26.0909C22.7053 26.6997 23.3142 27.3383 23.9082 27.8878C24.3983 28.363 24.8586 28.7788 25.2744 29.1649C24.9328 29.6104 24.725 30.1598 24.725 30.7539C24.725 30.9618 24.7547 31.1697 24.7992 31.3627C24.4428 31.3627 24.0864 31.3627 23.7448 31.3627C10.7658 31.5409 9.77084 31.4815 9.23623 28.3036C8.56798 24.3089 9.77084 20.2548 12.6221 16.8986C16.2158 12.6663 21.9628 10.023 27.6208 10.023C37.7486 10.023 45.9904 18.2649 45.9904 28.3927C45.9904 29.3431 45.827 29.9074 45.4558 30.2786Z" fill="#8B8C8E"/>
<path d="M47.8324 0H8.16759C3.66799 0 0 3.66799 0 8.16759V47.8324C0 52.332 3.66799 56 8.16759 56H47.8324C52.332 56 56 52.332 56 47.8324V8.16759C56 3.66799 52.332 0 47.8324 0ZM53.6685 47.8176C53.6685 51.04 51.0549 53.6537 47.8324 53.6537H8.16759C4.94511 53.6537 2.33147 51.04 2.33147 47.8176V8.15275C2.33147 4.93026 4.94511 2.31662 8.16759 2.31662H47.8324C51.0549 2.31662 53.6685 4.93026 53.6685 8.15275V47.8176Z" fill="#8B8C8E"/>
<path d="M7.23413 7.97399C7.84299 7.87004 8.24394 7.29087 8.13999 6.68202C8.03604 6.07316 7.45689 5.67221 6.84803 5.77616C6.23918 5.88011 5.83822 6.45927 5.94217 7.06813C6.04612 7.67698 6.62527 8.07794 7.23413 7.97399Z" fill="#8B8C8E"/>
<path d="M49.1537 7.97399C49.7626 8.07794 50.3417 7.67698 50.4457 7.06813C50.5496 6.45927 50.1487 5.88011 49.5398 5.77616C48.9309 5.67221 48.3518 6.07316 48.2478 6.68202C48.1439 7.29087 48.5449 7.87004 49.1537 7.97399Z" fill="#8B8C8E"/>
<path d="M6.84803 48.3516C6.23918 48.4555 5.83822 49.0347 5.94217 49.6436C6.04612 50.2524 6.62527 50.6534 7.23413 50.5494C7.84299 50.4455 8.24394 49.8663 8.13999 49.2575C8.03604 48.6486 7.45689 48.2476 6.84803 48.3516Z" fill="#8B8C8E"/>
<path d="M49.5398 48.3677C48.9309 48.2638 48.3518 48.6647 48.2478 49.2736C48.1439 49.8824 48.5449 50.4616 49.1537 50.5655C49.7626 50.6695 50.3417 50.2685 50.4457 49.6597C50.5496 49.0508 50.1487 48.4717 49.5398 48.3677Z" fill="#8B8C8E"/>
</svg>
