<svg width="57" height="56" viewBox="0 0 57 56" fill="none" xmlns="http://www.w3.org/2000/svg">
<path d="M29.7713 53.8124C31.6197 52.6366 33.4736 51.4663 35.3221 50.2905C36.1588 49.7601 37.0064 49.2351 37.8213 48.6663C39.7572 47.3155 41.5729 45.7788 43.1861 44.0507C46.3799 40.6218 48.808 36.5585 50.3447 32.1343C51.5971 28.5194 52.133 24.7077 52.133 20.8905V13.6116C52.133 12.6327 51.4494 11.7796 50.5252 11.5007C49.858 11.2983 49.1963 11.0905 48.5564 10.8226C48.7314 10.8936 48.9064 10.9702 49.0814 11.0413C47.9385 10.5546 46.8666 9.93115 45.8822 9.17646L46.3252 9.52099C45.3518 8.7663 44.4768 7.89677 43.7221 6.92333L44.0666 7.3663C43.3119 6.38193 42.683 5.30458 42.1963 4.16162C42.2674 4.33662 42.3439 4.51162 42.415 4.68662C42.251 4.29287 42.0979 3.88818 41.9666 3.48349C41.6713 2.55927 40.8455 1.87568 39.8557 1.87568H20.2283C19.326 1.87568 18.4182 1.84833 17.5158 1.87568H17.4775C16.4822 1.87568 15.6619 2.55927 15.3666 3.48349C15.2354 3.89365 15.0877 4.29287 14.9182 4.68662C14.9893 4.51162 15.0658 4.33662 15.1369 4.16162C14.6502 5.30458 14.0213 6.37646 13.2666 7.3663L13.6111 6.92333C12.8564 7.89677 11.9814 8.7663 11.008 9.52099L11.451 9.17646C10.4666 9.93115 9.38926 10.5546 8.25176 11.0413C8.42676 10.9702 8.60176 10.8936 8.77676 10.8226C8.13145 11.0905 7.4752 11.2983 6.80801 11.5007C5.88379 11.7796 5.2002 12.6327 5.2002 13.6116V20.2069C5.2002 21.3663 5.2002 22.5257 5.28223 23.6851C5.45723 26.0421 5.85645 28.3936 6.51816 30.6632C7.83066 35.1694 10.1057 39.3202 13.1244 42.9022C15.4705 45.6858 18.2979 47.939 21.3604 49.8804L27.4143 53.7194C27.4635 53.7522 27.5182 53.7851 27.5674 53.8179C28.5354 54.4304 30.0229 54.053 30.5588 53.0304C31.1275 51.9476 30.8049 50.6952 29.7713 50.039C28.7869 49.4155 27.8025 48.7921 26.8236 48.1686C25.5658 47.3702 24.3135 46.5772 23.0557 45.7788C22.1752 45.221 21.3166 44.6249 20.4854 43.9905L20.9283 44.3351C18.8611 42.7327 17.0018 40.8733 15.3994 38.8061L15.7439 39.2491C14.1143 37.1327 12.758 34.814 11.7135 32.353C11.7846 32.528 11.8611 32.703 11.9322 32.878C10.8658 30.346 10.1385 27.6882 9.77207 24.9647C9.79941 25.1561 9.82676 25.353 9.84863 25.5444C9.61348 23.7726 9.5752 22.0007 9.5752 20.2233V13.6335C9.03926 14.339 8.50332 15.039 7.96738 15.7444C9.8541 15.1757 11.6807 14.421 13.283 13.2671C15.1807 11.8999 16.7994 10.2155 18.0025 8.20302C18.6643 7.09833 19.1947 5.89521 19.5885 4.67021C18.883 5.20615 18.183 5.74208 17.4775 6.27802H37.1049C38.0072 6.27802 38.915 6.2999 39.8174 6.27802H39.8557C39.1502 5.74208 38.4502 5.20615 37.7447 4.67021C39.1174 8.95224 42.2346 12.6765 46.3252 14.6015C47.3096 15.0663 48.3213 15.4272 49.3658 15.7444C48.8299 15.039 48.2939 14.339 47.758 13.6335V21.3882C47.758 22.7772 47.665 24.1663 47.4846 25.5444C47.5119 25.353 47.5393 25.1561 47.5611 24.9647C47.1893 27.6827 46.4619 30.346 45.401 32.878C45.4721 32.703 45.5486 32.528 45.6197 32.353C44.5752 34.814 43.2189 37.1327 41.5893 39.2491L41.9338 38.8061C40.3314 40.8733 38.4721 42.7327 36.4049 44.3351L36.8479 43.9905C35.6229 44.9366 34.3213 45.7515 33.0197 46.5827C31.576 47.5015 30.1322 48.4147 28.6885 49.3335C28.3166 49.5686 27.9393 49.8093 27.5674 50.0444C27.0916 50.3452 26.7143 50.7991 26.5611 51.3515C26.4189 51.8765 26.4846 52.571 26.7799 53.0358C27.4033 53.9983 28.7377 54.4686 29.7713 53.8124Z" fill="#8B8C8E"/>
<path d="M17.5212 27.8852L23.1376 33.5016L23.936 34.3001C24.7728 35.1368 26.1946 35.1368 27.0314 34.3001L31.3681 29.9633L38.2314 23.1001L39.8118 21.5196C40.6212 20.7102 40.6814 19.2227 39.8118 18.4243C38.9368 17.6204 37.5806 17.5602 36.7165 18.4243L32.3798 22.761L25.5165 29.6243L23.936 31.2047H27.0314L21.4149 25.5883L20.6165 24.7899C19.8071 23.9805 18.3196 23.9204 17.5212 24.7899C16.7173 25.6649 16.6571 27.0157 17.5212 27.8852Z" fill="#8B8C8E"/>
</svg>
