<svg width="61" height="43" viewBox="0 0 61 43" fill="none" xmlns="http://www.w3.org/2000/svg">
<path d="M60.0329 29.2038C59.8126 28.9283 59.4931 28.7631 59.1516 28.7301L58.2373 28.6419C57.7856 24.7422 56.5078 20.9196 54.5138 17.5487L55.8468 16.9428C56.1662 16.7996 56.4086 16.5352 56.5298 16.2157C56.6509 15.8963 56.6399 15.5548 56.5077 15.2353C56.5077 15.1692 56.4747 15.1031 56.4527 15.048C56.3866 14.9048 56.2654 14.7947 56.1222 14.7396C56.012 14.6515 55.8908 14.5743 55.7697 14.5303C55.4392 14.4091 55.0867 14.4201 54.7672 14.5633L53.0487 15.3344C51.8479 13.682 50.4709 12.1728 48.9617 10.8399C47.6508 9.68317 46.2297 8.65868 44.7315 7.77738L45.9984 6.00379C46.2077 5.71737 46.2848 5.37587 46.2297 5.02335C46.1746 4.68185 45.9873 4.3734 45.7009 4.17511C45.4145 3.9658 45.062 3.8887 44.7205 3.94378C44.379 3.99886 44.0705 4.18613 43.8722 4.47255L42.3851 6.54358C39.1573 5.04539 35.5881 4.1641 32.0079 3.97682V1.31092C32.0079 0.583858 31.424 0 30.697 0C29.9699 0 29.386 0.583858 29.386 1.31092V3.96581C25.7287 4.12004 22.0823 5.01234 18.7885 6.54358L17.5437 4.38441C17.3674 4.07596 17.081 3.85564 16.7395 3.76751C16.398 3.67939 16.0455 3.72344 15.7481 3.8997C15.4396 4.07596 15.2303 4.36238 15.1312 4.69286C15.043 5.03437 15.0871 5.38689 15.2634 5.68433L16.4641 7.75535C15.043 8.59257 13.6881 9.55098 12.4542 10.6195C10.8679 11.9855 9.43583 13.5278 8.20202 15.2243L6.5496 14.2659C6.25216 14.0896 5.89966 14.0456 5.55816 14.1337C5.39291 14.1778 5.23868 14.2659 5.08445 14.3871C4.93023 14.4311 4.80905 14.5413 4.72092 14.6735C4.65482 14.7837 4.62179 14.9158 4.63281 15.048C4.56671 15.2684 4.56671 15.5107 4.63281 15.742C4.72093 16.0835 4.94125 16.37 5.24971 16.5352L6.75891 17.4055C4.76499 20.7213 3.4651 24.4889 2.98039 28.3225H1.97791C1.25085 28.3225 0.666992 28.9063 0.666992 29.6334C0.666992 30.3604 1.25085 30.9443 1.97791 30.9443H2.77108C2.6499 34.6567 3.26679 38.2921 4.59974 41.7621L4.86413 42.4562C4.89718 42.5443 4.96328 42.6104 5.05141 42.6434C5.13954 42.6765 5.23869 42.6655 5.3158 42.6214L5.96575 42.2689C6.71484 41.8723 7.18853 41.6189 7.508 41.4427L7.57411 41.4096C7.98538 41.182 8.40766 40.9763 8.84096 40.7927L9.4138 40.5504C9.57904 40.4843 9.65616 40.297 9.59006 40.1318L9.38075 39.5479C6.95721 32.9492 7.79443 25.4913 11.617 19.5096L13.3906 20.5561C13.6991 20.7324 14.0846 20.6222 14.2719 20.3137C14.36 20.1705 14.3821 19.9943 14.349 19.829C14.316 19.6528 14.2058 19.5096 14.0516 19.4214L12.3441 18.408C13.3796 16.9759 14.5693 15.676 15.8693 14.5633C19.791 11.1924 24.8033 9.27558 30.025 9.14339V11.0271C30.025 11.3686 30.3224 11.6441 30.6859 11.6441C31.0495 11.6441 31.3469 11.3686 31.3469 11.0271V9.1544C36.5906 9.33066 41.6029 11.3026 45.4916 14.7396C46.6483 15.7531 47.7059 16.9098 48.6312 18.1656L46.7695 19.091C46.45 19.2452 46.3288 19.6418 46.4941 19.9612C46.6593 20.2807 47.0449 20.4239 47.3533 20.2587L49.3803 19.2562C53.3241 25.271 54.2384 32.8171 51.8039 39.4928L51.6056 40.0216C51.5505 40.1758 51.6056 40.3411 51.7598 40.4182L52.3106 40.7156C52.9165 41.0902 53.5444 41.4206 54.1503 41.7401L54.3045 41.4537L54.2164 41.7732C54.5359 41.9384 54.8553 42.1147 55.1638 42.2799L55.8247 42.6434C55.8247 42.6434 55.9239 42.6875 55.979 42.6875C56.012 42.6875 56.0561 42.6875 56.0891 42.6655C56.1773 42.6324 56.2544 42.5663 56.2874 42.4782L56.5628 41.7732C57.8627 38.4022 58.4906 34.866 58.4135 31.2528L59.0304 31.3078C59.7134 31.3078 60.2642 30.8011 60.3303 30.1291C60.3634 29.7766 60.2642 29.4351 60.0439 29.1707L60.0329 29.2038ZM51.1429 18.3969L52.3437 17.8021C54.602 21.3493 55.99 25.4252 56.3425 29.6224L56.3866 30.2723C56.5849 33.6212 56.1552 36.915 55.0867 40.0657L55.0536 40.0436C54.668 39.8453 54.2825 39.636 53.8969 39.4267C56.1662 32.4535 55.1417 24.6541 51.1319 18.408L51.1429 18.3969ZM50.4048 17.2953C49.3362 15.8081 48.1135 14.4642 46.7805 13.2854C42.5283 9.53996 37.0533 7.39183 31.3359 7.21557V5.90465C35.1254 6.01481 38.893 6.96219 42.2419 8.65868L42.8147 8.94509C44.5442 9.87045 46.1746 11.0051 47.6508 12.305C49.1159 13.6049 50.4489 15.0811 51.6056 16.7005L50.4048 17.2953ZM9.50193 16.7555C10.7247 15.037 12.1458 13.4727 13.7211 12.1067C15.0981 10.917 16.6294 9.87046 18.2598 8.98917L18.8216 8.69173C22.2586 6.94016 26.1253 5.98176 30.014 5.90465V7.21557C24.3186 7.33675 18.8546 9.4298 14.5804 13.1092C13.1262 14.365 11.8043 15.8192 10.6476 17.4385L9.50193 16.7555ZM7.22158 39.3827C7.07838 39.4598 6.90212 39.5479 6.62672 39.7021L6.03184 40.0216C4.95226 36.8049 4.52263 33.456 4.75397 30.041L4.79804 29.4021C5.1836 25.3151 6.53858 21.3382 8.75283 17.8461L9.89851 18.5291C5.96576 24.7202 4.96328 32.4755 7.21058 39.3827H7.22158Z" fill="#8B8C8E"/>
<path d="M34.2442 34.2052C34.6518 33.6213 34.8942 32.9053 34.8942 32.1342C34.8942 30.1182 33.2638 28.4878 31.2478 28.4878C30.7962 28.4878 30.3776 28.576 29.981 28.7302L18.3369 15.3896L28.5379 29.7987C27.8438 30.4597 27.6125 31.1097 27.6125 32.1452C27.6125 34.1611 29.2429 35.7915 31.2588 35.7915C31.7436 35.7915 32.2062 35.6924 32.6359 35.5161C32.6359 35.5161 34.3544 38.3032 34.3323 38.3362C34.4535 38.4684 34.5747 38.6006 34.6849 38.7438C34.7289 38.7989 34.773 38.854 34.817 38.8981C36.5356 40.6276 38.0117 39.2616 37.0864 37.3448C36.9762 37.2126 34.2662 34.2052 34.2662 34.2052H34.2442ZM31.2258 34.4476C29.9369 34.4476 28.9014 33.401 28.9014 32.1232C28.9014 30.8453 29.9479 29.7987 31.2258 29.7987C32.5037 29.7987 33.5502 30.8453 33.5502 32.1232C33.5502 33.401 32.5037 34.4476 31.2258 34.4476Z" fill="#8B8C8E"/>
</svg>
