<svg width="56" height="56" viewBox="0 0 56 56" fill="none" xmlns="http://www.w3.org/2000/svg">
<g clip-path="url(#clip0_231_411)">
<path d="M21 54.25C9.42047 54.25 0 44.8295 0 33.25C0 21.6705 9.42047 12.25 21 12.25C21.4641 12.25 21.9092 12.4344 22.2374 12.7626C22.5656 13.0908 22.75 13.5359 22.75 14C22.75 14.4641 22.5656 14.9092 22.2374 15.2374C21.9092 15.5656 21.4641 15.75 21 15.75C11.3509 15.75 3.5 23.6009 3.5 33.25C3.5 42.8991 11.3509 50.75 21 50.75C30.6491 50.75 38.5 42.8991 38.5 33.25C38.5048 29.8612 37.5215 26.5445 35.6705 23.7059C35.541 23.5135 35.4511 23.2973 35.4059 23.0698C35.3608 22.8423 35.3613 22.6081 35.4074 22.3808C35.4535 22.1536 35.5444 21.9377 35.6747 21.7459C35.805 21.554 35.9721 21.39 36.1664 21.2633C36.3606 21.1366 36.5781 21.0497 36.8062 21.0078C37.0343 20.9659 37.2685 20.9698 37.4951 21.0192C37.7217 21.0686 37.9362 21.1625 38.1262 21.2955C38.3162 21.4286 38.4778 21.598 38.6017 21.7941C40.8247 25.2009 42.0057 29.1821 42 33.25C42 44.8295 32.5795 54.25 21 54.25Z" fill="#8B8C8E"/>
<path d="M21 45.5C18.5772 45.5 16.2088 44.7816 14.1943 43.4355C12.1798 42.0895 10.6097 40.1763 9.68248 37.9379C8.75531 35.6995 8.51272 33.2364 8.98539 30.8601C9.45805 28.4839 10.6248 26.3011 12.3379 24.5879C14.0511 22.8748 16.2339 21.7081 18.6101 21.2354C20.9864 20.7627 23.4495 21.0053 25.6879 21.9325C27.9263 22.8597 29.8395 24.4298 31.1855 26.4443C32.5316 28.4588 33.25 30.8272 33.25 33.25C33.2465 36.4978 31.9548 39.6117 29.6582 41.9082C27.3617 44.2048 24.2478 45.4965 21 45.5ZM21 24.5C19.2694 24.5 17.5777 25.0132 16.1388 25.9746C14.6998 26.9361 13.5783 28.3027 12.9161 29.9015C12.2538 31.5004 12.0805 33.2597 12.4181 34.957C12.7558 36.6544 13.5891 38.2135 14.8128 39.4372C16.0365 40.6609 17.5956 41.4943 19.293 41.8319C20.9903 42.1695 22.7496 41.9962 24.3485 41.334C25.9473 40.6717 27.3139 39.5502 28.2754 38.1112C29.2368 36.6723 29.75 34.9806 29.75 33.25C29.7474 30.9302 28.8247 28.7061 27.1843 27.0657C25.5439 25.4253 23.3198 24.5026 21 24.5Z" fill="#8B8C8E"/>
<path opacity="0.2" d="M31.5 33.25C31.4985 35.505 30.771 37.6996 29.4252 39.5091C28.0794 41.3185 26.1869 42.6466 24.0276 43.2968C21.8684 43.947 19.5572 43.8848 17.436 43.1194C15.3149 42.354 13.4965 40.9261 12.25 39.0469C14.2689 40.379 16.6858 40.9732 19.0922 40.7292C21.4987 40.4851 23.7471 39.4177 25.4574 37.7074C27.1677 35.9971 28.2351 33.7487 28.4792 31.3422C28.7232 28.9358 28.129 26.5189 26.7969 24.5C28.243 25.4561 29.4295 26.7558 30.2502 28.2828C31.071 29.8098 31.5004 31.5164 31.5 33.25Z" fill="#8B8C8E"/>
<path d="M54.25 24.5H21C20.5359 24.5 20.0908 24.3156 19.7626 23.9874C19.4344 23.6592 19.25 23.2141 19.25 22.75C19.25 22.2859 19.4344 21.8408 19.7626 21.5126C20.0908 21.1844 20.5359 21 21 21H52.5V15.75H21C20.5359 15.75 20.0908 15.5656 19.7626 15.2374C19.4344 14.9092 19.25 14.4641 19.25 14C19.25 13.5359 19.4344 13.0908 19.7626 12.7626C20.0908 12.4344 20.5359 12.25 21 12.25H54.25C54.7141 12.25 55.1593 12.4344 55.4874 12.7626C55.8156 13.0908 56 13.5359 56 14V22.75C56 23.2141 55.8156 23.6592 55.4874 23.9874C55.1593 24.3156 54.7141 24.5 54.25 24.5ZM21 37.9531C20.0698 37.9531 19.1605 37.6773 18.3871 37.1605C17.6137 36.6437 17.0108 35.9092 16.6549 35.0498C16.2989 34.1904 16.2058 33.2448 16.3872 32.3325C16.5687 31.4201 17.0166 30.5821 17.6744 29.9244C18.3321 29.2666 19.1702 28.8187 20.0825 28.6372C20.9948 28.4558 21.9404 28.5489 22.7998 28.9049C23.6592 29.2608 24.3937 29.8637 24.9105 30.6371C25.4273 31.4105 25.7031 32.3198 25.7031 33.25C25.7031 34.4973 25.2076 35.6936 24.3256 36.5756C23.4436 37.4576 22.2473 37.9531 21 37.9531ZM21 32.0469C20.762 32.0469 20.5294 32.1174 20.3316 32.2496C20.1337 32.3818 19.9795 32.5697 19.8885 32.7896C19.7974 33.0094 19.7736 33.2513 19.82 33.4847C19.8664 33.7181 19.981 33.9325 20.1493 34.1007C20.3175 34.269 20.5319 34.3836 20.7653 34.43C20.9987 34.4764 21.2406 34.4526 21.4604 34.3615C21.6803 34.2705 21.8682 34.1163 22.0004 33.9184C22.1326 33.7206 22.2031 33.488 22.2031 33.25C22.2031 32.9309 22.0764 32.6249 21.8507 32.3993C21.6251 32.1736 21.3191 32.0469 21 32.0469Z" fill="#8B8C8E"/>
<path d="M21 32.0469C20.5359 32.0469 20.0908 31.8625 19.7626 31.5343C19.4344 31.2061 19.25 30.761 19.25 30.2969V22.75C19.25 22.2859 19.4344 21.8408 19.7626 21.5126C20.0908 21.1844 20.5359 21 21 21C21.4641 21 21.9092 21.1844 22.2374 21.5126C22.5656 21.8408 22.75 22.2859 22.75 22.75V30.2969C22.75 30.761 22.5656 31.2061 22.2374 31.5343C21.9092 31.8625 21.4641 32.0469 21 32.0469Z" fill="#8B8C8E"/>
<path d="M17.6511 34.0013L10.4728 31.6695C10.0375 31.5212 9.67808 31.2075 9.47223 30.7963C9.26638 30.3851 9.23067 29.9094 9.37281 29.472C9.51495 29.0347 9.82352 28.6709 10.2318 28.4592C10.6401 28.2476 11.1152 28.2052 11.5545 28.3412L18.7328 30.6731C18.9543 30.7416 19.16 30.8535 19.3379 31.0023C19.5158 31.151 19.6624 31.3336 19.7691 31.5395C19.8758 31.7454 19.9405 31.9704 19.9595 32.2015C19.9785 32.4326 19.9514 32.6652 19.8797 32.8857C19.808 33.1063 19.6932 33.3104 19.542 33.4861C19.3908 33.6619 19.2061 33.8059 18.9988 33.9097C18.7914 34.0135 18.5655 34.0751 18.3341 34.0908C18.1028 34.1065 17.8706 34.0761 17.6511 34.0013Z" fill="#8B8C8E"/>
<path d="M14.827 43.4953C14.5043 43.495 14.1879 43.4056 13.9129 43.2368C13.6378 43.0681 13.4148 42.8265 13.2684 42.5389C13.1221 42.2513 13.0581 41.9288 13.0836 41.6071C13.1091 41.2854 13.223 40.977 13.4128 40.716L17.849 34.6107C17.9821 34.4197 18.1519 34.2572 18.3485 34.1327C18.5452 34.0081 18.7647 33.9241 18.9942 33.8854C19.2237 33.8467 19.4587 33.8542 19.6852 33.9075C19.9118 33.9607 20.1255 34.0586 20.3138 34.1955C20.5021 34.3323 20.6612 34.5054 20.7818 34.7045C20.9023 34.9035 20.982 35.1247 21.0161 35.3549C21.0501 35.5852 21.0379 35.8199 20.9802 36.0454C20.9224 36.2709 20.8202 36.4826 20.6797 36.6681L16.2445 42.7734C16.0821 42.9971 15.8689 43.1792 15.6225 43.3047C15.3761 43.4302 15.1035 43.4955 14.827 43.4953Z" fill="#8B8C8E"/>
<path d="M27.1732 43.4953C26.896 43.4962 26.6225 43.4312 26.3753 43.3057C26.1281 43.1802 25.9142 42.9977 25.7514 42.7734L21.3162 36.6681C21.1756 36.4826 21.0735 36.2709 21.0157 36.0454C20.9579 35.8199 20.9457 35.5852 20.9798 35.3549C21.0139 35.1247 21.0935 34.9035 21.2141 34.7045C21.3347 34.5054 21.4938 34.3323 21.6821 34.1955C21.8703 34.0586 22.084 33.9607 22.3106 33.9075C22.5372 33.8542 22.7721 33.8467 23.0017 33.8854C23.2312 33.9241 23.4507 34.0081 23.6473 34.1327C23.844 34.2572 24.0138 34.4197 24.1468 34.6107L28.5831 40.716C28.7726 40.9767 28.8865 41.2847 28.9122 41.606C28.9378 41.9273 28.8742 42.2495 28.7284 42.537C28.5826 42.8244 28.3602 43.066 28.0858 43.2351C27.8114 43.4042 27.4956 43.4942 27.1732 43.4953Z" fill="#8B8C8E"/>
<path d="M22.1444 32.8781C22.001 32.4368 22.0388 31.9565 22.2495 31.543C22.4601 31.1295 22.8264 30.8166 23.2677 30.6731L30.446 28.3413C30.8853 28.2053 31.3605 28.2477 31.7687 28.4593C32.177 28.671 32.4856 29.0348 32.6277 29.4721C32.7699 29.9095 32.7342 30.3852 32.5283 30.7964C32.3225 31.2076 31.963 31.5213 31.5277 31.6696L24.3494 34.0014C23.9081 34.1448 23.4278 34.107 23.0143 33.8964C22.6008 33.6857 22.2879 33.3195 22.1444 32.8781ZM47.2504 26.9063C46.7862 26.9063 46.3411 26.7219 46.0129 26.3937C45.6847 26.0655 45.5004 25.6204 45.5004 25.1563V11.5938C45.5004 11.1296 45.6847 10.6845 46.0129 10.3563C46.3411 10.0281 46.7862 9.84377 47.2504 9.84377C47.7145 9.84377 48.1596 10.0281 48.4878 10.3563C48.816 10.6845 49.0004 11.1296 49.0004 11.5938V25.1563C49.0004 25.6204 48.816 26.0655 48.4878 26.3937C48.1596 26.7219 47.7145 26.9063 47.2504 26.9063ZM54.2504 26.9063C53.7862 26.9063 53.3411 26.7219 53.0129 26.3937C52.6847 26.0655 52.5004 25.6204 52.5004 25.1563V11.5938C52.5004 11.1296 52.6847 10.6845 53.0129 10.3563C53.3411 10.0281 53.7862 9.84377 54.2504 9.84377C54.7145 9.84377 55.1596 10.0281 55.4878 10.3563C55.816 10.6845 56.0004 11.1296 56.0004 11.5938V25.1563C56.0004 25.6204 55.816 26.0655 55.4878 26.3937C55.1596 26.7219 54.7145 26.9063 54.2504 26.9063ZM23.7916 15.75C23.4345 15.7501 23.086 15.641 22.7927 15.4373C22.4995 15.2336 22.2755 14.945 22.151 14.6103L19.6879 8.0019C19.5262 7.56706 19.5437 7.0858 19.7367 6.66391C19.9297 6.24203 20.2824 5.91404 20.7171 5.75205L28.9202 2.6994C29.1384 2.61813 29.3707 2.58123 29.6033 2.59085C29.836 2.60047 30.0643 2.65643 30.2751 2.75544C30.4859 2.85445 30.6747 2.99452 30.8307 3.16745C30.9866 3.34038 31.1064 3.54269 31.1832 3.76252L34.7663 13.3875C34.8465 13.603 34.8834 13.8321 34.875 14.0618C34.8666 14.2915 34.813 14.5174 34.7173 14.7264C34.6217 14.9354 34.4858 15.1235 34.3174 15.28C34.149 15.4365 33.9515 15.5583 33.736 15.6385C33.5206 15.7186 33.2914 15.7555 33.0617 15.7471C32.832 15.7387 32.6062 15.6852 32.3971 15.5895C32.1881 15.4938 32 15.3579 31.8435 15.1895C31.687 15.0212 31.5652 14.8236 31.4851 14.6081L28.4991 6.58768L23.5827 8.4219L25.4312 13.3908C25.5294 13.6554 25.5622 13.9398 25.5268 14.2197C25.4913 14.4997 25.3887 14.767 25.2277 14.9987C25.0666 15.2304 24.8519 15.4198 24.6019 15.5506C24.3518 15.6815 24.0738 15.7499 23.7916 15.75Z" fill="#8B8C8E"/>
<path d="M17.4314 8.84185C17.3512 8.62648 17.3141 8.3974 17.3224 8.16772C17.3307 7.93803 17.3842 7.71222 17.4798 7.5032C17.5753 7.29418 17.7112 7.10603 17.8794 6.9495C18.0477 6.79296 18.2452 6.67112 18.4606 6.59092L31.1722 1.85935C31.3876 1.77921 31.6168 1.74228 31.8465 1.75068C32.0762 1.75908 32.302 1.81265 32.511 1.90832C32.72 2.004 32.9082 2.1399 33.0647 2.30828C33.2212 2.47666 33.343 2.67422 33.4231 2.88967C33.5033 3.10512 33.5402 3.33424 33.5318 3.56396C33.5234 3.79368 33.4698 4.0195 33.3741 4.22852C33.2785 4.43754 33.1426 4.62567 32.9742 4.78216C32.8058 4.93866 32.6083 5.06046 32.3928 5.1406L19.6812 9.87107C19.2464 10.0328 18.7651 10.0152 18.3433 9.82221C17.9214 9.62921 17.5934 9.27659 17.4314 8.84185Z" fill="#8B8C8E"/>
</g>
<defs>
<clipPath id="clip0_231_411">
<rect width="56" height="56" fill="white"/>
</clipPath>
</defs>
</svg>
