<svg width="56" height="56" viewBox="0 0 56 56" fill="none" xmlns="http://www.w3.org/2000/svg">
<g clip-path="url(#clip0_231_1432)">
<path d="M28.1744 20.8386C27.5674 20.8386 26.974 20.6586 26.4693 20.3213C25.9646 19.9841 25.5712 19.5047 25.3389 18.9439C25.1066 18.3831 25.0458 17.766 25.1642 17.1706C25.2826 16.5753 25.5749 16.0284 26.0042 15.5991C26.4334 15.1699 26.9803 14.8776 27.5757 14.7592C28.171 14.6407 28.7881 14.7015 29.349 14.9338C29.9098 15.1661 30.3891 15.5595 30.7264 16.0642C31.0636 16.569 31.2436 17.1624 31.2436 17.7694C31.2436 18.5834 30.9203 19.3641 30.3447 19.9396C29.7691 20.5152 28.9884 20.8386 28.1744 20.8386ZM28.1744 16.7463C27.9721 16.7463 27.7743 16.8063 27.606 16.9187C27.4378 17.0312 27.3067 17.1909 27.2292 17.3779C27.1518 17.5648 27.1316 17.7705 27.171 17.969C27.2105 18.1674 27.3079 18.3497 27.451 18.4928C27.5941 18.6359 27.7764 18.7333 27.9748 18.7728C28.1733 18.8123 28.379 18.792 28.5659 18.7146C28.7529 18.6371 28.9127 18.506 29.0251 18.3378C29.1375 18.1695 29.1975 17.9717 29.1975 17.7694C29.1975 17.4981 29.0897 17.2378 28.8979 17.046C28.706 16.8541 28.4458 16.7463 28.1744 16.7463ZM28.1744 51.5306C27.3651 51.5306 26.5739 51.2905 25.9009 50.8409C25.2279 50.3912 24.7034 49.7521 24.3937 49.0043C24.0839 48.2566 24.0029 47.4338 24.1608 46.6399C24.3187 45.8461 24.7085 45.1169 25.2808 44.5446C25.8531 43.9723 26.5823 43.5826 27.3761 43.4247C28.1699 43.2668 28.9927 43.3478 29.7405 43.6575C30.4882 43.9673 31.1274 44.4918 31.577 45.1648C32.0267 45.8377 32.2667 46.6289 32.2667 47.4383C32.2667 48.5236 31.8355 49.5645 31.0681 50.332C30.3007 51.0994 29.2598 51.5306 28.1744 51.5306ZM28.1744 45.3922C27.7697 45.3922 27.3741 45.5122 27.0377 45.737C26.7012 45.9618 26.4389 46.2814 26.2841 46.6553C26.1292 47.0292 26.0887 47.4406 26.1676 47.8375C26.2466 48.2344 26.4414 48.599 26.7276 48.8851C27.0138 49.1713 27.3783 49.3662 27.7753 49.4451C28.1722 49.5241 28.5836 49.4835 28.9575 49.3287C29.3313 49.1738 29.6509 48.9115 29.8757 48.5751C30.1006 48.2386 30.2206 47.843 30.2206 47.4383C30.2206 46.8956 30.005 46.3752 29.6213 45.9915C29.2375 45.6077 28.7171 45.3922 28.1744 45.3922ZM21.3097 46.4152C21.2114 46.4313 21.1112 46.4313 21.013 46.4152C20.884 46.3776 20.7637 46.315 20.6589 46.2308C20.5542 46.1467 20.467 46.0428 20.4024 45.925C20.2719 45.6871 20.2413 45.4071 20.3173 45.1466C20.7052 43.8413 21.4126 42.6534 22.3755 41.6905C23.3384 40.7276 24.5263 40.0202 25.8316 39.6323C25.9605 39.5858 26.0973 39.5657 26.2341 39.573C26.3709 39.5804 26.5048 39.6152 26.6279 39.6753C26.751 39.7354 26.8607 39.8196 26.9506 39.923C27.0406 40.0263 27.1088 40.1466 27.1514 40.2768C27.189 40.4058 27.2008 40.5409 27.1862 40.6745C27.1716 40.808 27.1309 40.9374 27.0663 41.0552C27.0017 41.173 26.9145 41.2769 26.8097 41.361C26.705 41.4452 26.5847 41.5078 26.4557 41.5454C25.4897 41.8385 24.6108 42.3652 23.897 43.079C23.1832 43.7928 22.6565 44.6717 22.3634 45.6377C22.3064 45.8701 22.1698 46.0751 21.9773 46.2172C21.7847 46.3592 21.5485 46.4293 21.3097 46.4152Z" fill="#8B8C8E"/>
<path d="M28.174 55.6227C26.4114 55.6238 24.6955 55.0558 23.2817 54.0032C21.8679 52.9507 20.8316 51.4699 20.327 49.781C20.2484 49.5205 20.2764 49.2395 20.4049 48.9996C20.5335 48.7598 20.752 48.5809 21.0125 48.5022C21.273 48.4235 21.554 48.4515 21.7939 48.5801C22.0337 48.7086 22.2126 48.9272 22.2913 49.1876C22.669 50.4545 23.4455 51.5657 24.5054 52.3557C25.5653 53.1458 26.852 53.5726 28.174 53.5726C29.4959 53.5726 30.7826 53.1458 31.8425 52.3557C32.9024 51.5657 33.679 50.4545 34.0566 49.1876C34.0955 49.0587 34.1595 48.9386 34.2449 48.8344C34.3302 48.7301 34.4353 48.6437 34.554 48.5801C34.6728 48.5164 34.8029 48.4768 34.937 48.4634C35.071 48.45 35.2064 48.4632 35.3354 48.5022C35.4644 48.5411 35.5844 48.6051 35.6887 48.6905C35.7929 48.7758 35.8793 48.8809 35.943 48.9996C36.0066 49.1184 36.0463 49.2485 36.0596 49.3826C36.073 49.5167 36.0598 49.652 36.0209 49.781C35.5163 51.4699 34.4801 52.9507 33.0662 54.0032C31.6524 55.0558 29.9365 55.6238 28.174 55.6227ZM35.0387 46.4151C34.8104 46.4242 34.5857 46.3566 34.4003 46.2231C34.2148 46.0896 34.0794 45.8979 34.0157 45.6785C33.7226 44.7125 33.1959 43.8337 32.4821 43.1199C31.7683 42.406 30.8894 41.8793 29.9234 41.5863C29.7944 41.5486 29.6741 41.486 29.5693 41.4019C29.4646 41.3178 29.3774 41.2138 29.3128 41.096C29.1823 40.8581 29.1517 40.5781 29.2277 40.3177C29.3037 40.0572 29.48 39.8376 29.7179 39.7071C29.9558 39.5766 30.2358 39.546 30.4963 39.622C31.8016 40.0098 32.9896 40.7173 33.9525 41.6802C34.9153 42.643 35.6228 43.831 36.0106 45.1363C36.0905 45.3954 36.0643 45.6757 35.9377 45.9155C35.8111 46.1553 35.5945 46.335 35.3354 46.4151C35.2372 46.4312 35.137 46.4312 35.0387 46.4151Z" fill="#8B8C8E"/>
<path d="M37.3816 50.5075H35.0388C34.7674 50.5075 34.5072 50.3997 34.3154 50.2079C34.1235 50.016 34.0157 49.7558 34.0157 49.4845C34.0157 49.2131 34.1235 48.9529 34.3154 48.761C34.5072 48.5692 34.7674 48.4614 35.0388 48.4614H36.3585V46.4153H35.0388C34.7674 46.4153 34.5072 46.3075 34.3154 46.1156C34.1235 45.9238 34.0157 45.6635 34.0157 45.3922C34.0157 45.1209 34.1235 44.8607 34.3154 44.6688C34.5072 44.4769 34.7674 44.3691 35.0388 44.3691H37.3816C37.6529 44.3691 37.9132 44.4769 38.105 44.6688C38.2969 44.8607 38.4047 45.1209 38.4047 45.3922V49.4845C38.4047 49.7558 38.2969 50.016 38.105 50.2079C37.9132 50.3997 37.6529 50.5075 37.3816 50.5075ZM21.3092 50.5075H18.9664C18.6951 50.5075 18.4349 50.3997 18.243 50.2079C18.0511 50.016 17.9434 49.7558 17.9434 49.4845V45.3922C17.9434 45.1209 18.0511 44.8607 18.243 44.6688C18.4349 44.4769 18.6951 44.3691 18.9664 44.3691H21.3092C21.5806 44.3691 21.8408 44.4769 22.0327 44.6688C22.2245 44.8607 22.3323 45.1209 22.3323 45.3922C22.3323 45.6635 22.2245 45.9238 22.0327 46.1156C21.8408 46.3075 21.5806 46.4153 21.3092 46.4153H19.9895V48.4614H21.3092C21.5806 48.4614 21.8408 48.5692 22.0327 48.761C22.2245 48.9529 22.3323 49.2131 22.3323 49.4845C22.3323 49.7558 22.2245 50.016 22.0327 50.2079C21.8408 50.3997 21.5806 50.5075 21.3092 50.5075ZM30.2201 41.5966C29.9488 41.5966 29.6886 41.4888 29.4967 41.297C29.3049 41.1051 29.1971 40.8449 29.1971 40.5736V24.9309H27.1509V40.5736C27.1509 40.8449 27.0432 41.1051 26.8513 41.297C26.6594 41.4888 26.3992 41.5966 26.1279 41.5966C25.8565 41.5966 25.5963 41.4888 25.4045 41.297C25.2126 41.1051 25.1048 40.8449 25.1048 40.5736V23.9078C25.1048 23.6365 25.2126 23.3763 25.4045 23.1844C25.5963 22.9926 25.8565 22.8848 26.1279 22.8848H30.2201C30.4915 22.8848 30.7517 22.9926 30.9436 23.1844C31.1354 23.3763 31.2432 23.6365 31.2432 23.9078V40.5736C31.2432 40.8449 31.1354 41.1051 30.9436 41.297C30.7517 41.4888 30.4915 41.5966 30.2201 41.5966Z" fill="#8B8C8E"/>
<path d="M38.4043 29.023H34.312C34.1774 29.0238 34.0439 28.998 33.9193 28.9471C33.7946 28.8962 33.6813 28.8212 33.5857 28.7263L29.8003 24.9308H26.547L22.7616 28.7263C22.666 28.8212 22.5527 28.8962 22.428 28.9471C22.3034 28.998 22.1699 29.0238 22.0352 29.023H17.943C17.6717 29.023 17.4114 28.9152 17.2196 28.7234C17.0277 28.5315 16.9199 28.2713 16.9199 28V1.40026C16.9199 1.12893 17.0277 0.868708 17.2196 0.676846C17.4114 0.484984 17.6717 0.377197 17.943 0.377197H38.4043C38.6756 0.377197 38.9359 0.484984 39.1277 0.676846C39.3196 0.868708 39.4274 1.12893 39.4274 1.40026V28C39.4274 28.2713 39.3196 28.5315 39.1277 28.7234C38.9359 28.9152 38.6756 29.023 38.4043 29.023ZM34.7315 26.9769H37.3812V2.42333H18.9661V26.9769H21.6158L25.4011 23.1813C25.4967 23.0865 25.6101 23.0115 25.7347 22.9606C25.8594 22.9097 25.9929 22.8839 26.1275 22.8846H30.2198C30.3544 22.8839 30.4879 22.9097 30.6125 22.9606C30.7372 23.0115 30.8506 23.0865 30.9461 23.1813L34.7315 26.9769Z" fill="#8B8C8E"/>
<path d="M38.4043 12.6541H17.943C17.6717 12.6541 17.4114 12.5463 17.2196 12.3545C17.0277 12.1626 16.9199 11.9024 16.9199 11.6311C16.9199 11.3597 17.0277 11.0995 17.2196 10.9077C17.4114 10.7158 17.6717 10.608 17.943 10.608H38.4043C38.6756 10.608 38.9359 10.7158 39.1277 10.9077C39.3196 11.0995 39.4274 11.3597 39.4274 11.6311C39.4274 11.9024 39.3196 12.1626 39.1277 12.3545C38.9359 12.5463 38.6756 12.6541 38.4043 12.6541ZM38.4043 7.53881H17.943C17.6717 7.53881 17.4114 7.43102 17.2196 7.23916C17.0277 7.0473 16.9199 6.78708 16.9199 6.51574C16.9199 6.24441 17.0277 5.98419 17.2196 5.79232C17.4114 5.60046 17.6717 5.49268 17.943 5.49268H38.4043C38.6756 5.49268 38.9359 5.60046 39.1277 5.79232C39.3196 5.98419 39.4274 6.24441 39.4274 6.51574C39.4274 6.78708 39.3196 7.0473 39.1277 7.23916C38.9359 7.43102 38.6756 7.53881 38.4043 7.53881ZM34.312 18.7925C34.0407 18.7925 33.7805 18.6847 33.5886 18.4929C33.3968 18.301 33.289 18.0408 33.289 17.7695C33.289 17.4981 33.3968 17.2379 33.5886 17.046C33.7805 16.8542 34.0407 16.7464 34.312 16.7464C34.5834 16.7464 34.8436 16.8542 35.0355 17.046C35.2273 17.2379 35.3351 17.4981 35.3351 17.7695C35.3351 18.0408 35.2273 18.301 35.0355 18.4929C34.8436 18.6847 34.5834 18.7925 34.312 18.7925ZM22.0352 18.7925C21.7639 18.7925 21.5037 18.6847 21.3118 18.4929C21.12 18.301 21.0122 18.0408 21.0122 17.7695C21.0122 17.4981 21.12 17.2379 21.3118 17.046C21.5037 16.8542 21.7639 16.7464 22.0352 16.7464C22.3066 16.7464 22.5668 16.8542 22.7587 17.046C22.9505 17.2379 23.0583 17.4981 23.0583 17.7695C23.0583 18.0408 22.9505 18.301 22.7587 18.4929C22.5668 18.6847 22.3066 18.7925 22.0352 18.7925Z" fill="#8B8C8E"/>
</g>
<defs>
<clipPath id="clip0_231_1432">
<rect width="55" height="55" fill="white" transform="translate(0.333008 0.5)"/>
</clipPath>
</defs>
</svg>
