<svg width="55" height="56" viewBox="0 0 55 56" fill="none" xmlns="http://www.w3.org/2000/svg">
<path d="M16.6371 29.3123C10.7786 29.3123 6.00977 34.0811 6.00977 39.9396C6.00977 45.7981 10.7786 50.567 16.6371 50.567C22.4957 50.567 27.2645 45.7981 27.2645 39.9396C27.2645 34.0811 22.4957 29.3123 16.6371 29.3123ZM19.543 46.63C15.8521 48.2353 11.5636 46.5363 9.95841 42.8455C8.35317 39.1546 10.0522 34.8661 13.743 33.2609C17.4339 31.6557 21.7223 33.3429 23.3276 37.0455C24.9328 40.7364 23.2456 45.0248 19.5547 46.63H19.543Z" fill="#8B8C8E"/>
<path d="M31.1431 39.6935L30.1354 37.3618L32.4554 35.2059L30.897 31.6205L27.7334 31.8431L26.7257 29.5114L24.3589 28.574L24.4643 25.4104L20.8438 23.981L18.7581 26.3712L16.3913 25.4339L14.0596 26.4415L11.892 24.1333L8.31823 25.6799L8.54086 28.8435L6.20917 29.8629L5.27179 32.2298L2.09647 32.1243L0.666992 35.7449L3.05728 37.8305L2.13162 40.1974L3.15102 42.5291L0.83103 44.6967L2.3894 48.2704L5.55302 48.0478L6.5724 50.3795L8.93923 51.3168L8.83378 54.4805L12.4544 55.9099L14.54 53.5197L16.9069 54.457L19.2385 53.4494L21.4062 55.7576L24.9799 54.211L24.7573 51.0474L27.089 50.028L28.0263 47.6611L31.2016 47.7666L32.6311 44.146L30.2408 42.0604L31.1782 39.6935H31.1431ZM16.6374 51.973C10.0055 51.973 4.61565 46.5832 4.61565 39.9513C4.61565 33.3195 10.0055 27.9296 16.6374 27.9296C23.2692 27.9296 28.6591 33.3195 28.6591 39.9513C28.6591 46.5832 23.2692 51.973 16.6374 51.973Z" fill="#8B8C8E"/>
<path d="M51.7066 18.7554L54.6242 17.5251L54.3781 13.635L51.3316 12.7562L51.1793 10.2136L49.2812 8.52637L50.4529 5.58539L47.5353 3.00764L44.7584 4.54257L42.8602 2.85531L40.3176 3.00764L39.0756 0.0900879L35.1855 0.324426L34.3068 3.37087L31.7642 3.52318L30.0769 5.43306L27.1359 4.24965L24.5582 7.16718L26.0931 9.93241L24.4176 11.8423L24.5699 14.3849L21.6523 15.6269L21.8867 19.517L24.9331 20.384L25.0854 22.9266L26.9953 24.6139L25.8119 27.5549L28.7295 30.1326L31.5064 28.5977L33.4163 30.285L35.9472 30.1326L37.1892 33.0502L41.0792 32.8158L41.958 29.7694L44.5006 29.6171L46.1879 27.7072L49.1289 28.8789L51.7066 25.9614L50.1717 23.1844L51.8589 21.2862L51.7066 18.7436V18.7554ZM38.1383 28.5977C31.5064 28.5977 26.1165 23.2078 26.1165 16.576C26.1165 9.94413 31.5064 4.55428 38.1383 4.55428C44.7701 4.55428 50.1599 9.94413 50.1599 16.576C50.1599 23.2078 44.7701 28.5977 38.1383 28.5977Z" fill="#8B8C8E"/>
<path d="M38.1381 5.94873C32.2796 5.94873 27.5107 10.7176 27.5107 16.5761C27.5107 22.4346 32.2796 27.2035 38.1381 27.2035C43.9967 27.2035 48.7655 22.4346 48.7655 16.5761C48.7655 10.7176 43.9967 5.94873 38.1381 5.94873ZM38.5834 23.8524C34.5644 24.0985 31.1079 21.0403 30.8618 17.0213C30.6041 13.0024 33.6739 9.54587 37.6811 9.29981C41.7001 9.05375 45.1566 12.1119 45.4027 16.1309C45.6487 20.1498 42.5906 23.6063 38.5716 23.8524H38.5834Z" fill="#8B8C8E"/>
</svg>
