<svg width="49" height="48" viewBox="0 0 49 48" fill="none" xmlns="http://www.w3.org/2000/svg">
<g clip-path="url(#clip0_231_223)">
<path d="M22.7949 0.5L19.2414 3.97063L9.45002 13.7038H0V34.2962H9.45002L19.2414 44.0294L22.7949 47.5V0.5ZM18.6207 10.48C18.6207 21.0398 18.6207 26.9602 18.6207 37.52L11.8552 30.7639L11.2035 30.1777H4.14311V17.8377H11.2035L11.8552 17.2516L18.6207 10.48Z" fill="#8B8C8E"/>
<path d="M30.6311 18.9829L33.6105 16.0213L39.3829 21.7595L45.1398 16.0213L48.1036 18.9829L42.3622 24.7211L48.1036 30.5209L45.1398 33.4825L39.3829 27.7598L33.6105 33.4825L30.6311 30.5209L36.4036 24.7211L30.6311 18.9829Z" fill="#8B8C8E"/>
</g>
<defs>
<clipPath id="clip0_231_223">
<rect width="48.1191" height="47" fill="white" transform="translate(0 0.5)"/>
</clipPath>
</defs>
</svg>
