<svg width="56" height="56" viewBox="0 0 56 56" fill="none" xmlns="http://www.w3.org/2000/svg">
<path d="M31.7635 14.0529C32.3481 15.0272 32.9327 15.9736 33.4617 16.8087L30.1767 19.119C29.8427 19.3417 29.7035 19.7314 29.787 20.1211C29.8705 20.5108 30.1767 20.7891 30.5665 20.8726L44.0681 23.2665C44.0681 23.2665 44.1795 23.2665 44.2351 23.2665C44.6805 23.2665 45.0981 22.9603 45.1816 22.4871C45.5992 20.3994 45.9333 18.5345 46.2673 16.7252C46.6849 14.3591 47.1025 12.1045 47.6871 9.37658C47.7706 8.98688 47.6036 8.59719 47.2695 8.3745C46.9354 8.15182 46.49 8.15182 46.1838 8.3745C45.2651 9.04255 44.6248 9.4601 43.9846 9.90546C43.6783 10.1281 43.3443 10.323 42.9824 10.5735C42.7597 10.156 42.5091 9.7106 42.2586 9.26524C40.4769 6.00848 38.2499 1.9445 34.9093 1.52697C32.4595 1.22078 29.2859 1.02593 26.2237 0.831084C24.6091 0.719742 23.0779 0.636234 21.7974 0.524892C21.4911 0.497056 21.2685 0.469233 21.0458 0.580575C17.4825 2.02802 15.311 6.06417 13.418 9.62711C12.8613 10.6849 12.3324 11.6591 11.7756 12.5777C11.6364 12.8004 11.6085 13.0787 11.6642 13.3292C11.7477 13.5797 11.9148 13.8024 12.1375 13.9416L21.6582 19.0077C22.1036 19.2582 22.6882 19.0912 22.9388 18.6458L28.7013 9.20958C29.787 10.7962 30.817 12.4942 31.7357 14.0251L31.7635 14.0529ZM27.8383 6.95489L21.7974 16.8643L13.9748 12.7169C14.3645 12.021 14.7543 11.3251 15.144 10.5735C16.9257 7.23325 18.7909 3.75381 21.6025 2.50121C22.9109 2.61255 24.4699 2.69606 26.0845 2.8074C29.1189 3.00225 32.2646 3.1971 34.6587 3.50329C37.025 3.78164 38.9737 7.37242 40.5604 10.2395C41.0059 11.0745 41.4513 11.8539 41.8689 12.522C42.008 12.7447 42.2307 12.9117 42.5091 12.9674C42.7597 13.023 43.0381 12.9674 43.2608 12.8004C44.0124 12.2715 44.5692 11.9096 45.0981 11.5477L45.3208 11.4086C44.9589 13.1901 44.6805 14.8323 44.3743 16.419C44.0959 17.9499 43.8175 19.5087 43.4835 21.2345L33.2111 19.4252L35.3547 17.9221C35.8001 17.6159 35.8836 17.0314 35.6052 16.586C34.9371 15.5839 34.2133 14.387 33.4338 13.1066C32.2646 11.1581 30.9005 8.93121 29.4808 6.98273C29.2859 6.70437 28.9519 6.53737 28.6456 6.53737C28.3116 6.53737 28.0054 6.73221 27.8383 7.01057V6.95489ZM21.6025 38.6595L10.5785 37.8245C11.4972 36.1265 12.555 34.4285 13.5016 32.8976C14.0862 31.9234 14.6708 31.0048 15.1719 30.1419L18.7352 32.0068C19.0692 32.2017 19.5147 32.146 19.8209 31.8955C20.1271 31.645 20.2384 31.2275 20.1271 30.8656L16.1184 17.7551C15.9513 17.254 15.4224 16.9478 14.9213 17.1148C12.8891 17.6716 11.1075 18.2283 9.3258 18.7572C7.01521 19.453 4.81599 20.1211 2.11567 20.8448C1.72593 20.9562 1.44757 21.2902 1.39189 21.6799C1.33621 22.0696 1.5589 22.4593 1.89296 22.6541C2.89514 23.183 3.53541 23.5449 4.23137 23.9067C4.56543 24.1016 4.89949 24.2686 5.31707 24.4913C5.06652 24.881 4.76033 25.2985 4.48195 25.7439C2.39407 28.8336 -0.194908 32.6471 0.946465 35.8203C1.80945 38.1585 3.09 41.1091 4.31488 43.9483C4.95517 45.3957 5.53977 46.7875 6.01303 47.9287C6.04086 48.0401 6.09655 48.1514 6.15223 48.2349C6.2079 48.3741 6.29141 48.4855 6.40276 48.569C9.32579 51.0742 13.8913 51.1855 17.9 51.2412C19.0971 51.2412 20.2384 51.2969 21.2963 51.3525H21.3798C21.6304 51.3525 21.8531 51.269 22.048 51.102C22.2428 50.9071 22.3542 50.6566 22.3542 50.4061L22.5212 39.6059C22.5212 39.1049 22.1314 38.6595 21.6304 38.6317L21.6025 38.6595ZM20.4055 49.404C19.5981 49.3762 18.7908 49.3484 17.9278 49.3484C14.1418 49.2649 10.2445 49.2092 7.82254 47.2885C7.32145 46.0638 6.70898 44.672 6.09654 43.1967C4.92733 40.4967 3.61893 37.4626 2.75594 35.1523C1.94863 32.9254 4.23138 29.5573 6.06871 26.8295C6.59764 26.0501 7.09875 25.2985 7.51632 24.6304C7.65551 24.4078 7.68333 24.1294 7.62766 23.8789C7.54414 23.6284 7.37712 23.4057 7.15441 23.2943C6.3471 22.849 5.76251 22.5428 5.17791 22.2366L4.9552 22.1252C6.70901 21.6242 8.32361 21.151 9.88256 20.6778C11.358 20.2324 12.8613 19.7871 14.5316 19.3139L17.5938 29.279L15.2832 28.0542C14.81 27.8037 14.2253 27.9707 13.9748 28.4439C13.3902 29.5016 12.6386 30.6986 11.8591 31.9512C10.662 33.8997 9.29795 36.0987 8.18441 38.2698L8.12877 38.3812C8.01742 38.6595 8.04525 38.9935 8.21228 39.2719C8.37931 39.5503 8.65771 39.7173 8.96393 39.7173L20.5447 40.5802L20.4055 49.4597V49.404ZM49.4966 22.1809C49.3574 21.9582 49.1347 21.7912 48.8841 21.7356C48.6336 21.6799 48.3552 21.7355 48.1325 21.8747L39.1407 27.8594C38.7231 28.1377 38.5839 28.7223 38.8345 29.1676L44.4022 38.7152C42.4535 38.9101 40.4213 39.0214 38.6118 39.1049C37.4982 39.1606 36.4404 39.2162 35.466 39.2719L34.9928 35.2636C34.9371 34.8739 34.6587 34.5399 34.2968 34.4285C33.9071 34.3172 33.5174 34.4285 33.2668 34.7626L24.7483 45.5071C24.4142 45.9246 24.4699 46.5091 24.8874 46.8432C26.5299 48.2349 28.0054 49.404 29.4808 50.5731C31.346 52.0762 33.0998 53.468 35.2155 55.2773C35.3825 55.4443 35.633 55.5 35.8558 55.5C36.0228 55.5 36.162 55.4722 36.3012 55.3887C36.6631 55.1938 36.858 54.8041 36.8023 54.4144C36.6631 53.2732 36.5796 52.4938 36.4961 51.7144C36.4682 51.3525 36.4125 50.9907 36.3847 50.5731C36.8579 50.5731 37.359 50.5731 37.8601 50.5731C41.5905 50.5731 46.2395 50.5175 48.1882 47.7617C49.6079 45.7297 51.306 43.0297 52.9485 40.4132C53.8115 39.0492 54.6188 37.741 55.3148 36.6832C55.3705 36.5997 55.4261 36.5162 55.4818 36.4327C55.5653 36.3214 55.5932 36.1822 55.621 36.0152C56.0386 32.1739 53.5331 28.3604 51.3061 25.0201C50.6379 24.0181 50.0255 23.0717 49.4966 22.1531V22.1809ZM53.7002 35.6255C52.9764 36.7389 52.169 38.0472 51.3061 39.4111C49.6914 41.9998 47.9933 44.6998 46.6014 46.6762C45.2373 48.6246 41.145 48.6525 37.8601 48.6525C36.9136 48.6525 36.0506 48.6525 35.2433 48.7081C34.9649 48.7081 34.7422 48.8473 34.5473 49.0422C34.3803 49.237 34.2968 49.5154 34.3246 49.7659C34.436 50.6566 34.4917 51.2968 34.5473 51.9371V52.2711C33.1833 51.1298 31.9027 50.0999 30.65 49.0979C29.4251 48.0958 28.1724 47.1215 26.8083 45.9803L33.2946 37.7966L33.6009 40.4132C33.6565 40.942 34.1298 41.3317 34.6587 41.2761C35.8279 41.1647 37.192 41.1091 38.6675 41.0256C40.978 40.9142 43.5948 40.775 46.0446 40.441C46.3787 40.4132 46.6571 40.2183 46.7963 39.9121C46.9354 39.6059 46.9354 39.2719 46.7963 38.9936L40.9502 28.9449L48.3274 24.0459C48.7449 24.714 49.1903 25.4098 49.6636 26.1057C51.7515 29.279 53.895 32.5357 53.7002 35.5976V35.6255Z" fill="#8B8C8E"/>
<path d="M17.9278 49.3484C18.7908 49.3484 19.5981 49.3762 20.4055 49.404V49.4597L20.5447 40.5802L8.96393 39.7173C8.65771 39.7173 8.37931 39.5503 8.21228 39.2719C8.04525 38.9935 8.01742 38.6595 8.12877 38.3812L8.18441 38.2698C9.29795 36.0987 10.662 33.8997 11.8591 31.9512C12.6386 30.6986 13.3902 29.5016 13.9748 28.4439C14.2253 27.9707 14.81 27.8037 15.2832 28.0542L17.5938 29.279L14.5316 19.3139C12.8613 19.7871 11.358 20.2324 9.88256 20.6778C8.32361 21.151 6.70901 21.6242 4.9552 22.1252L5.17791 22.2366C5.76251 22.5428 6.3471 22.849 7.15441 23.2943C7.37712 23.4057 7.54414 23.6284 7.62766 23.8789C7.68333 24.1294 7.65551 24.4078 7.51632 24.6304C7.09875 25.2985 6.59764 26.0501 6.06871 26.8295L6.03517 26.8794C4.20375 29.5983 1.95354 32.939 2.75594 35.1523C3.61893 37.4626 4.92733 40.4967 6.09654 43.1967C6.70898 44.672 7.32145 46.0638 7.82254 47.2885C10.2445 49.2092 14.1418 49.2649 17.9278 49.3484Z" fill="#8B8C8E"/>
</svg>
