<svg width="22" height="22" viewBox="0 0 22 22" fill="none" xmlns="http://www.w3.org/2000/svg">
<path d="M8.2487 20.1667C8.75496 20.1667 9.16536 19.7563 9.16536 19.25C9.16536 18.7438 8.75496 18.3334 8.2487 18.3334C7.74244 18.3334 7.33203 18.7438 7.33203 19.25C7.33203 19.7563 7.74244 20.1667 8.2487 20.1667Z" stroke="white" stroke-width="1.5" stroke-linecap="round" stroke-linejoin="round"/>
<path d="M18.3346 20.1667C18.8409 20.1667 19.2513 19.7563 19.2513 19.25C19.2513 18.7438 18.8409 18.3334 18.3346 18.3334C17.8284 18.3334 17.418 18.7438 17.418 19.25C17.418 19.7563 17.8284 20.1667 18.3346 20.1667Z" stroke="white" stroke-width="1.5" stroke-linecap="round" stroke-linejoin="round"/>
<path d="M0.917969 0.916626H4.58464L7.0413 13.1908C7.12513 13.6128 7.35472 13.9919 7.68989 14.2617C8.02505 14.5315 8.44444 14.6749 8.87464 14.6666H17.7846C18.2148 14.6749 18.6342 14.5315 18.9694 14.2617C19.3046 13.9919 19.5341 13.6128 19.618 13.1908L21.0846 5.49996H5.5013" stroke="white" stroke-width="1.5" stroke-linecap="round" stroke-linejoin="round"/>
</svg>
