<svg width="60" height="60" viewBox="0 0 60 60" fill="none" xmlns="http://www.w3.org/2000/svg">
<g clip-path="url(#clip0_110_855)">
<path d="M30 59.0625C46.0508 59.0625 59.0625 46.0508 59.0625 30C59.0625 13.9492 46.0508 0.9375 30 0.9375C13.9492 0.9375 0.9375 13.9492 0.9375 30C0.9375 46.0508 13.9492 59.0625 30 59.0625Z" fill="#BBDEFB"/>
<path d="M52.5852 10.289V10.2609C52.5292 10.1751 52.4595 10.0991 52.3789 10.0359C49.5698 6.87998 46.1245 4.3543 42.2697 2.62482C38.4148 0.895342 34.2376 0.0012207 30.0125 0.0012207C25.7875 0.0012207 21.6102 0.895342 17.7554 2.62482C13.9005 4.3543 10.4553 6.87998 7.64611 10.0359C7.5672 10.0995 7.49913 10.1755 7.44455 10.2609V10.289C3.65215 14.6273 1.1894 19.9661 0.350727 25.667C-0.48795 31.3678 0.332933 37.1897 2.71524 42.4364C5.09754 47.6831 8.94046 52.1327 13.7846 55.2533C18.6287 58.3739 24.269 60.0334 30.0313 60.0334C35.7935 60.0334 41.4338 58.3739 46.278 55.2533C51.1221 52.1327 54.965 47.6831 57.3473 42.4364C59.7296 37.1897 60.5505 31.3678 59.7118 25.667C58.8731 19.9661 56.4104 14.6273 52.618 10.289H52.5852ZM51.6477 47.9531C49.5178 46.7098 47.2572 45.7053 44.9071 44.9578C46.3602 40.4241 47.1249 35.698 47.1758 30.9374H58.1024C57.9023 37.1717 55.6256 43.1604 51.6336 47.9531H51.6477ZM1.89924 30.9374H12.8258C12.8812 35.6988 13.6507 40.4248 15.1086 44.9578C12.7584 45.7053 10.4979 46.7098 8.36799 47.9531C4.37599 43.1604 2.09927 37.1717 1.89924 30.9374ZM8.4383 11.9765C10.5577 13.2084 12.8054 14.205 15.1414 14.9484C13.6623 19.5094 12.8816 24.2679 12.8258 29.0624H1.89924C2.10353 22.7954 4.40629 16.7786 8.4383 11.9765ZM30.9383 17.1749C35.056 17.1166 39.1503 16.5434 43.1258 15.4687C44.529 19.8656 45.2684 24.4473 45.3195 29.0624H30.9383V17.1749ZM30.9383 15.2999V1.93119C35.6914 2.46088 39.8445 6.989 42.4695 13.7015C38.7058 14.7046 34.833 15.2414 30.9383 15.2999ZM29.0633 15.2999C25.1688 15.2429 21.296 14.7076 17.5321 13.7062C20.1571 6.989 24.3102 2.46088 29.0633 1.93119V15.2999ZM29.0633 17.1749V29.0624H14.7008C14.7459 24.4483 15.479 19.8666 16.8758 15.4687C20.8513 16.5434 24.9455 17.1166 29.0633 17.1749ZM14.7008 30.9374H29.0633V42.7218C24.9451 42.7831 20.8508 43.3594 16.8758 44.4374C15.4892 40.0693 14.7563 35.5201 14.7008 30.9374ZM29.0633 44.5968V58.0687C24.2914 57.5343 20.1008 52.9687 17.4945 46.2046C21.27 45.1952 25.1556 44.6552 29.0633 44.5968ZM30.9383 44.5968C34.846 44.6552 38.7315 45.1952 42.507 46.2046C39.9008 52.9687 35.7102 57.5343 30.9383 58.0687V44.5968ZM30.9383 42.7218V30.9374H45.3008C45.2448 35.5185 44.5119 40.0661 43.1258 44.4328C39.1506 43.3564 35.0563 42.7816 30.9383 42.7218ZM47.1758 29.0624C47.12 24.2679 46.3393 19.5094 44.8602 14.9484C47.1962 14.205 49.4439 13.2084 51.5633 11.9765C55.5953 16.7786 57.8981 22.7954 58.1024 29.0624H47.1758ZM50.293 10.5562C48.3665 11.6368 46.3339 12.5165 44.2274 13.1812C42.4977 8.73744 40.0977 5.15619 37.2852 2.83588C42.2448 4.17316 46.7434 6.84317 50.293 10.5562ZM22.7164 2.83588C19.9039 5.14213 17.5086 8.73744 15.7789 13.1812C13.6724 12.5165 11.6398 11.6368 9.7133 10.5562C13.2616 6.8439 17.7585 4.17394 22.7164 2.83588ZM9.64299 49.3781C11.5769 48.2852 13.6191 47.396 15.7367 46.7249C17.4711 51.2156 19.8805 54.8437 22.7117 57.164C17.723 55.8184 13.2013 53.1246 9.64299 49.3781ZM37.2992 57.164C40.1117 54.8203 42.5399 51.2156 44.2742 46.7249C46.3918 47.396 48.434 48.2852 50.368 49.3781C46.8058 53.1268 42.279 55.8208 37.2852 57.164H37.2992Z" fill="#90CAF9"/>
<path d="M44.8175 47.3439C43.7823 46.3165 42.383 45.74 40.9245 45.74C39.4661 45.74 38.0667 46.3165 37.0315 47.3439L34.6878 49.6876C33.6545 50.7244 33.0742 52.1285 33.0742 53.5923C33.0742 55.0561 33.6545 56.4602 34.6878 57.497L35.555 58.3642C36.5918 59.3975 37.9959 59.9778 39.4597 59.9778C40.9235 59.9778 42.3276 59.3975 43.3644 58.3642L45.7081 56.0204C46.7426 54.9843 47.3236 53.5799 47.3236 52.1157C47.3236 50.6516 46.7426 49.2472 45.7081 48.2111L44.8175 47.3439ZM43.8331 54.1689L41.4894 56.5126C40.9433 57.0542 40.2053 57.3581 39.4362 57.3581C38.6671 57.3581 37.9292 57.0542 37.3831 56.5126L36.5159 55.6454C35.9743 55.0993 35.6705 54.3614 35.6705 53.5923C35.6705 52.8232 35.9743 52.0853 36.5159 51.5392L38.8597 49.1954C39.4052 48.6527 40.1433 48.348 40.9128 48.348C41.6823 48.348 42.4205 48.6527 42.9659 49.1954L43.8331 50.0626C44.1047 50.3331 44.3201 50.6545 44.4672 51.0084C44.6142 51.3624 44.6899 51.7419 44.6899 52.1251C44.6899 52.5084 44.6142 52.8879 44.4672 53.2418C44.3201 53.5957 44.1047 53.9172 43.8331 54.1876V54.1689ZM58.3831 35.5173L57.53 34.6876C57.0157 34.1716 56.4046 33.7621 55.7317 33.4828C55.0589 33.2034 54.3375 33.0596 53.6089 33.0596C52.8803 33.0596 52.1589 33.2034 51.4861 33.4828C50.8132 33.7621 50.2021 34.1716 49.6878 34.6876L47.344 37.0314C46.3101 38.0697 45.7297 39.4754 45.7297 40.9407C45.7297 42.4061 46.3101 43.8117 47.344 44.8501L48.1972 45.7032C49.2349 46.7383 50.6408 47.3196 52.1066 47.3196C53.5723 47.3196 54.9782 46.7383 56.0159 45.7032L58.3597 43.3595C58.8773 42.8467 59.2885 42.2369 59.5699 41.5648C59.8513 40.8928 59.9973 40.1718 59.9994 39.4433C60.0016 38.7147 59.86 37.9929 59.5826 37.3192C59.3052 36.6455 58.8976 36.0331 58.3831 35.5173ZM56.5315 41.4892L54.1878 43.8329C53.6411 44.3788 52.9002 44.6854 52.1276 44.6854C51.3551 44.6854 50.6141 44.3788 50.0675 43.8329L49.219 42.9704C48.6755 42.4226 48.3704 41.6821 48.3704 40.9103C48.3704 40.1385 48.6755 39.398 49.219 38.8501L51.5628 36.5064C52.1095 35.9605 52.8504 35.6539 53.623 35.6539C54.3955 35.6539 55.1364 35.9605 55.6831 36.5064L56.5362 37.3595C57.0832 37.9078 57.39 38.6509 57.3891 39.4253C57.3882 40.1998 57.0798 40.9421 56.5315 41.4892Z" fill="#0049C3"/>
<path d="M52.7874 40.261C52.6659 40.1393 52.5216 40.0427 52.3627 39.9768C52.2039 39.9109 52.0336 39.877 51.8616 39.877C51.6896 39.877 51.5193 39.9109 51.3605 39.9768C51.2016 40.0427 51.0573 40.1393 50.9358 40.261L40.2624 50.9345C40.1408 51.056 40.0444 51.2004 39.9786 51.3592C39.9128 51.5181 39.8789 51.6883 39.8789 51.8602C39.8789 52.0322 39.9128 52.2024 39.9786 52.3613C40.0444 52.5201 40.1408 52.6644 40.2624 52.786C40.384 52.9076 40.5283 53.004 40.6871 53.0698C40.846 53.1356 41.0162 53.1695 41.1882 53.1695C41.3601 53.1695 41.5303 53.1356 41.6892 53.0698C41.848 53.004 41.9924 52.9076 42.1139 52.786L52.7874 42.1126C52.9091 41.9911 53.0057 41.8468 53.0716 41.6879C53.1375 41.5291 53.1714 41.3588 53.1714 41.1868C53.1714 41.0148 53.1375 40.8445 53.0716 40.6857C53.0057 40.5268 52.9091 40.3825 52.7874 40.261Z" fill="#0049C3"/>
</g>
<defs>
<clipPath id="clip0_110_855">
<rect width="60" height="60" fill="white"/>
</clipPath>
</defs>
</svg>
