<svg width="80" height="80" viewBox="0 0 80 80" fill="none" xmlns="http://www.w3.org/2000/svg">
<path d="M39.9991 52.9166C38.8486 52.9166 37.9158 53.8494 37.9158 54.9999C37.9158 56.1504 38.8486 57.0832 39.9991 57.0832C41.1497 57.0832 42.0825 56.1504 42.0825 54.9999C42.0825 53.8494 41.1497 52.9166 39.9991 52.9166ZM39.9991 46.6666C40.9189 46.6659 41.6664 45.9199 41.6658 44.9999V31.6666C41.6658 30.7461 40.9196 29.9999 39.9991 29.9999C39.0787 29.9999 38.3325 30.7461 38.3325 31.6666V45.0017C38.3331 45.9217 39.0791 46.6672 39.9991 46.6666ZM75.7088 58.4895L48.5473 11.5949C47.6835 10.1049 46.4449 8.86626 44.9548 8.00241C40.2337 5.26559 34.188 6.87387 31.451 11.5949L4.28626 58.4992C3.41406 60.0048 2.95487 61.714 2.95508 63.4539C2.9561 68.911 7.38053 73.334 12.8377 73.3332H67.1508C68.8922 73.3336 70.6028 72.8742 72.1097 72.0012C76.8347 69.264 78.446 63.2146 75.7088 58.4895ZM67.151 69.9999H12.8377C11.6878 69.9991 10.5584 69.6957 9.56295 69.1202C6.43062 67.3091 5.35925 63.3017 7.17037 60.1692L34.3351 13.2681C35.4956 11.2375 37.6603 9.98971 39.9991 10.0031C42.338 9.98971 44.5027 11.2375 45.6632 13.2681L72.8249 60.1627C73.4029 61.1612 73.7072 62.2946 73.7068 63.4484C73.7056 67.068 70.7704 70.0011 67.151 69.9999Z" fill="#0049C3"/>
</svg>
