<svg width="233" height="49" viewBox="0 0 233 49" fill="none" xmlns="http://www.w3.org/2000/svg">
<path d="M59.1987 19.1017H53.457V14.4532H70.2517V19.1017H64.51V33.598H59.2074V19.1017H59.1987Z" fill="white"/>
<path d="M72.5684 14.4532H87.9685V18.964H77.8194V21.865H87.0044V26.0486H77.8194V29.0873H88.1062V33.598H72.577V14.4532H72.5684Z" fill="white"/>
<path d="M90.8086 14.4532H99.0123C103.85 14.4532 106.975 16.941 106.975 21.2366C106.975 25.7473 103.497 28.1318 98.7454 28.1318H96.1199V33.598H90.8172V14.4532H90.8086ZM98.6335 23.9654C100.519 23.9654 101.672 22.984 101.672 21.4259C101.672 19.7818 100.527 18.9123 98.6077 18.9123H96.1199V23.974H98.6335V23.9654Z" fill="white"/>
<path d="M109.213 14.4532H114.464V25.2308L121.876 14.4532H126.825V33.598H121.574V22.8205L114.163 33.598H109.213V14.4532Z" fill="white"/>
<path d="M130.113 32.5822L132.188 28.7516C132.928 29.2422 133.772 29.4058 134.348 29.4058C134.813 29.4058 135.442 29.2422 136.018 28.588L128.529 14.4532H134.435L138.782 23.4489L142.888 14.4532H148.655L141.192 29.0528C139.445 32.4703 137.663 33.8649 134.71 33.8649C132.876 33.8649 131.404 33.3397 130.113 32.5822Z" fill="white"/>
<path d="M150.35 14.4532H155.954L160.525 21.865L165.088 14.4532H170.692V33.598H165.415V22.6053L160.517 30.1031H160.405L155.541 22.6655V33.6066H150.342V14.4619L150.35 14.4532Z" fill="white"/>
<path d="M174.084 14.4532H191.232V33.598H185.929V19.1017H179.395V33.598H174.093V14.4532H174.084Z" fill="#8B8C8E"/>
<path d="M194.623 14.4532H202.827C207.665 14.4532 210.789 16.941 210.789 21.2366C210.789 25.7473 207.312 28.1318 202.56 28.1318H199.934V33.598H194.632V14.4532H194.623ZM202.448 23.9654C204.333 23.9654 205.487 22.984 205.487 21.4259C205.487 19.7818 204.342 18.9123 202.422 18.9123H199.934V23.974H202.448V23.9654Z" fill="#8B8C8E"/>
<path d="M212.375 24.0256C212.375 18.5335 216.808 14.0745 222.714 14.0745C228.619 14.0745 233 18.4819 233 24.0256C233 29.5693 228.567 33.9767 222.662 33.9767C216.757 33.9767 212.375 29.5693 212.375 24.0256ZM227.577 24.0256C227.577 21.2624 225.58 18.8607 222.653 18.8607C219.726 18.8607 217.815 21.2107 217.815 24.0256C217.815 26.8405 219.813 29.1906 222.714 29.1906C225.614 29.1906 227.586 26.8405 227.586 24.0256H227.577Z" fill="#8B8C8E"/>
<path d="M24.0256 48.0512C10.7775 48.0512 0 37.2737 0 24.0256C0 10.7775 10.7775 0 24.0256 0C37.2737 0 48.0512 10.7775 48.0512 24.0256C48.0512 37.2737 37.2737 48.0512 24.0256 48.0512ZM24.0256 1.89381C11.8191 1.89381 1.8938 11.8191 1.8938 24.0256C1.8938 36.2321 11.8191 46.1574 24.0256 46.1574C36.2321 46.1574 46.1574 36.2235 46.1574 24.0256C46.1574 11.8277 36.2321 1.89381 24.0256 1.89381Z" fill="white"/>
<path d="M33.0467 22.0543C34.0624 24.2408 34.7253 26.2465 34.7253 27.7272C34.7253 33.7013 29.8702 38.5563 23.8961 38.5563C17.922 38.5563 13.0669 33.7013 13.0669 27.7272C13.0669 22.4675 21.5547 10.4848 23.8961 7.28257C24.5761 8.21226 25.7813 9.89087 27.1414 11.931C27.546 11.6383 27.9764 11.4059 28.4499 11.2251C26.3839 8.12618 24.6708 5.84499 24.4901 5.60396L23.9047 4.82922L23.3194 5.60396C22.8373 6.24097 11.6035 21.1763 11.6035 27.7272C11.6035 34.278 17.1214 40.0283 23.9047 40.0283C30.688 40.0283 36.2059 34.5105 36.2059 27.7272C36.2059 26.0141 35.4398 23.7329 34.3035 21.2882C33.9247 21.5981 33.5029 21.8563 33.0553 22.0629L33.0467 22.0543Z" fill="white"/>
<path d="M30.5844 19.9453C28.8025 19.9453 27.3477 18.4905 27.3477 16.7086C27.3477 14.9267 28.8025 13.4719 30.5844 13.4719C32.3663 13.4719 33.8211 14.9267 33.8211 16.7086C33.8211 18.4905 32.3663 19.9453 30.5844 19.9453ZM30.5844 14.9439C29.6116 14.9439 28.8197 15.7359 28.8197 16.7086C28.8197 17.6814 29.6116 18.4733 30.5844 18.4733C31.5571 18.4733 32.349 17.6814 32.349 16.7086C32.349 15.7359 31.5571 14.9439 30.5844 14.9439Z" fill="white"/>
</svg>
