<svg width="486" height="380" viewBox="0 0 486 380" fill="none" xmlns="http://www.w3.org/2000/svg">
<path d="M384.97 76.6455H384.959C384.999 75.6695 385.034 74.6936 385.034 73.7118C385.034 34.2283 351.729 0 310.652 0C280.616 0 254.756 19.3346 243.015 43.9707H242.998C231.252 19.3346 205.391 0 175.356 0C134.273 0 100.974 34.2283 100.974 73.7118C100.974 74.6936 101.009 75.6695 101.049 76.6455H101.038C101.038 76.6455 96.8392 123.55 149.039 174.762C172.774 198.544 199.316 221.141 243.004 256.652C286.692 221.141 313.233 198.544 336.969 174.762C389.169 123.55 384.97 76.6455 384.97 76.6455Z" fill="#0049C3"/>
<path d="M61.7234 252.754C61.7234 252.754 46.5294 222.366 36.7582 214.223C26.9927 206.08 31.3297 194.686 49.2379 197.401C67.1461 200.115 91.5627 232.131 103.505 246.783C115.442 261.434 129.008 262.519 129.008 262.519C172.961 269.033 185.868 272.146 209.921 310.134C240.846 358.961 217.521 381.767 184.961 379.595C152.402 377.424 135.037 361.144 135.037 361.144C135.037 361.144 88.8485 331.981 70.9403 323.844C53.0321 315.707 13.4157 232.68 4.19308 210.429C-5.02955 188.178 2.02169 108.951 15.0443 109.494C28.0668 110.037 35.1239 117.631 35.1239 146.396C35.1239 175.161 37.8381 188.721 37.8381 188.721" fill="#E6E6E6"/>
<path d="M424.287 252.754C424.287 252.754 439.481 222.366 449.247 214.223C459.012 206.08 454.675 194.686 436.767 197.401C418.859 200.115 394.442 232.131 382.5 246.783C370.563 261.434 356.997 262.519 356.997 262.519C313.044 269.033 300.137 272.146 276.078 310.134C245.153 358.961 268.478 381.767 301.038 379.595C333.597 377.424 350.962 361.144 350.962 361.144C350.962 361.144 397.151 331.981 415.059 323.844C432.967 315.707 472.578 232.68 481.806 210.429C491.029 188.178 483.978 108.951 470.955 109.494C457.932 110.037 450.875 117.631 450.875 146.396C450.875 175.161 448.161 188.721 448.161 188.721" fill="#E6E6E6"/>
</svg>
