<svg width="70" height="70" viewBox="0 0 70 70" fill="none" xmlns="http://www.w3.org/2000/svg">
<path d="M59.6366 40.7079C59.437 27.6374 48.791 17.1111 35.6806 17.1111C22.5702 17.1111 11.9242 27.6374 11.7246 40.7079H59.6366Z" fill="white"/>
<path d="M59.6366 40.7079C59.437 27.6374 48.791 17.1111 35.6806 17.1111C22.5702 17.1111 11.9242 27.6374 11.7246 40.7079H59.6366Z" stroke="#8B8C8E" stroke-width="1.1" stroke-miterlimit="10"/>
<path d="M23.6385 22.9976C18.8094 26.4099 15.447 31.7478 14.4492 37.5847" stroke="#8B8C8E" stroke-width="1.03" stroke-miterlimit="10" stroke-linecap="round"/>
<path d="M39.6921 26.7192C40.0014 25.5618 40.3107 24.4044 40.62 23.247M35.8009 41.2265L48.9612 28.0662M46.3072 35.1602C48.173 34.0826 50.0488 33.005 51.9146 31.9175M41.4881 31.3587C42.6954 29.2734 43.8927 27.1881 45.0999 25.1028M31.9596 27.0085C31.6104 25.7115 31.2611 24.4044 30.9119 23.1073M24.9953 30.351C24.1871 29.5428 23.3789 28.7347 22.5707 27.9265M24.5962 34.6613C22.9399 33.7035 21.2737 32.7456 19.6074 31.7878M29.6647 30.5905C28.5872 28.7147 27.5096 26.8489 26.4221 24.9831M35.7311 28.6049V22.4788" stroke="#8B8C8E" stroke-width="1.1" stroke-miterlimit="10" stroke-linecap="round"/>
<path d="M40.161 40.7978C40.161 43.2722 38.1555 45.2777 35.6811 45.2777C33.2067 45.2777 31.2012 43.2722 31.2012 40.7978C31.2012 38.3234 33.2067 36.3179 35.6811 36.3179C38.1555 36.3179 40.161 38.3234 40.161 40.7978Z" fill="white"/>
<path d="M40.161 40.7978C40.161 43.2722 38.1555 45.2777 35.6811 45.2777C33.2067 45.2777 31.2012 43.2722 31.2012 40.7978C31.2012 38.3234 33.2067 36.3179 35.6811 36.3179C38.1555 36.3179 40.161 38.3234 40.161 40.7978Z" stroke="#8B8C8E" stroke-width="1.1" stroke-miterlimit="10"/>
<path d="M60.6665 41.137H10.8887V55.2751H60.6665V41.137Z" fill="#8B8C8E"/>
<path d="M23.1413 51.9129C22.2832 51.9129 21.6048 51.5936 21.0859 51.1147L21.6147 50.2067C22.0737 50.6058 22.5526 50.8453 23.1114 50.8453C23.8697 50.8453 24.3685 50.3564 24.3685 49.5981V49.5582C24.3685 48.7999 23.8597 48.3908 23.1213 48.3908C22.7123 48.3908 22.3631 48.5006 22.0637 48.6502L21.3952 48.2013L21.5848 44.8289H25.2166V45.8765H22.5427L22.4429 47.5328C22.7123 47.433 22.9817 47.3731 23.3708 47.3731C24.5481 47.3731 25.506 48.0416 25.506 49.5283V49.5682C25.506 50.995 24.5581 51.9129 23.1413 51.9129Z" fill="white"/>
<path d="M29.0983 51.923C27.5019 51.923 26.4941 50.5062 26.4941 48.381V48.2712C26.4941 46.146 27.5118 44.7192 29.1082 44.7192C30.7046 44.7192 31.7224 46.136 31.7224 48.2613V48.371C31.7224 50.4962 30.6947 51.923 29.0983 51.923ZM30.545 48.2812C30.545 46.7048 29.9663 45.7569 29.0983 45.7569C28.2302 45.7569 27.6715 46.6848 27.6715 48.2613V48.361C27.6715 49.9375 28.2402 50.8853 29.1082 50.8853C29.9763 50.8853 30.545 49.9475 30.545 48.381V48.2812Z" fill="white"/>
<path d="M35.3248 51.923C33.7284 51.923 32.7207 50.5062 32.7207 48.381V48.2712C32.7207 46.146 33.7384 44.7192 35.3348 44.7192C36.9312 44.7192 37.9489 46.136 37.9489 48.2613V48.371C37.9489 50.4962 36.9212 51.923 35.3248 51.923ZM36.7716 48.2812C36.7716 46.7048 36.1929 45.7569 35.3248 45.7569C34.4568 45.7569 33.898 46.6848 33.898 48.2613V48.361C33.898 49.9375 34.4668 50.8853 35.3348 50.8853C36.2029 50.8853 36.7716 49.9475 36.7716 48.381V48.2812Z" fill="white"/>
<path d="M41.5494 51.923C39.953 51.923 38.9453 50.5062 38.9453 48.381V48.2712C38.9453 46.146 39.963 44.7192 41.5594 44.7192C43.1558 44.7192 44.1735 46.136 44.1735 48.2613V48.371C44.1735 50.4962 43.1458 51.923 41.5494 51.923ZM42.9962 48.2812C42.9962 46.7048 42.4175 45.7569 41.5494 45.7569C40.6814 45.7569 40.1227 46.6848 40.1227 48.2613V48.361C40.1227 49.9375 40.6914 50.8853 41.5594 50.8853C42.4275 50.8853 42.9962 49.9475 42.9962 48.381V48.2812Z" fill="white"/>
<path d="M47.7741 51.923C46.1777 51.923 45.1699 50.5062 45.1699 48.381V48.2712C45.1699 46.146 46.1876 44.7192 47.784 44.7192C49.3804 44.7192 50.3981 46.136 50.3981 48.2613V48.371C50.3981 50.4962 49.3705 51.923 47.7741 51.923ZM49.2208 48.2812C49.2208 46.7048 48.6421 45.7569 47.7741 45.7569C46.906 45.7569 46.3473 46.6848 46.3473 48.2613V48.361C46.3473 49.9375 46.916 50.8853 47.784 50.8853C48.6521 50.8853 49.2208 49.9475 49.2208 48.381V48.2812Z" fill="white"/>
</svg>
