<svg width="56" height="56" viewBox="0 0 56 56" fill="none" xmlns="http://www.w3.org/2000/svg">
<path d="M29.75 14C29.75 11.6794 28.8281 9.45376 27.1872 7.81282C25.5462 6.17187 23.3207 5.25 21 5.25C18.6794 5.25 16.4538 6.17187 14.8128 7.81282C13.1719 9.45376 12.25 11.6794 12.25 14V33.495C10.5618 35.218 9.41992 37.401 8.96745 39.7704C8.51498 42.1397 8.77209 44.59 9.70655 46.8138C10.641 49.0376 12.2112 50.936 14.2203 52.271C16.2293 53.6061 18.5878 54.3182 21 54.3182C23.4122 54.3182 25.7707 53.6061 27.7797 52.271C29.7888 50.936 31.359 49.0376 32.2935 46.8138C33.2279 44.59 33.485 42.1397 33.0326 39.7704C32.5801 37.401 31.4382 35.218 29.75 33.495V14ZM21 50.75C19.2232 50.7541 17.4873 50.2172 16.0231 49.2107C14.5589 48.2041 13.4358 46.7757 12.8032 45.1154C12.1706 43.455 12.0585 41.6414 12.4817 39.9158C12.9049 38.1901 13.8435 36.6342 15.1725 35.455C15.3453 35.2994 15.4854 35.111 15.5846 34.9006C15.6837 34.6903 15.74 34.4623 15.75 34.23V14C15.75 12.6076 16.3031 11.2723 17.2877 10.2877C18.2723 9.30312 19.6076 8.75 21 8.75C22.3924 8.75 23.7277 9.30312 24.7123 10.2877C25.6969 11.2723 26.25 12.6076 26.25 14V34.23C26.2506 34.4742 26.3023 34.7156 26.4017 34.9386C26.5012 35.1616 26.6462 35.3614 26.8275 35.525C28.1309 36.7096 29.0464 38.2599 29.4544 39.9733C29.8624 41.6866 29.7438 43.4832 29.1143 45.128C28.4847 46.7729 27.3733 48.1895 25.9256 49.1925C24.4779 50.1956 22.7612 50.7384 21 50.75Z" fill="#8B8C8E"/>
<path d="M21 47.3201C23.8995 47.3201 26.25 44.9696 26.25 42.0701C26.25 39.1706 23.8995 36.8201 21 36.8201C18.1005 36.8201 15.75 39.1706 15.75 42.0701C15.75 44.9696 18.1005 47.3201 21 47.3201Z" fill="#8B8C8E"/>
<path d="M45.5 12.25H35C34.5359 12.25 34.0908 12.4344 33.7626 12.7626C33.4344 13.0908 33.25 13.5359 33.25 14C33.25 14.4641 33.4344 14.9092 33.7626 15.2374C34.0908 15.5656 34.5359 15.75 35 15.75H45.5C45.9641 15.75 46.4092 15.5656 46.7374 15.2374C47.0656 14.9092 47.25 14.4641 47.25 14C47.25 13.5359 47.0656 13.0908 46.7374 12.7626C46.4092 12.4344 45.9641 12.25 45.5 12.25Z" fill="#8B8C8E"/>
</svg>
