<svg width="57" height="56" viewBox="0 0 57 56" fill="none" xmlns="http://www.w3.org/2000/svg">
<g clip-path="url(#clip0_231_1674)">
<path d="M1.89057 27.7503C1.89057 27.7503 10.7668 29.7448 10.833 29.7453C10.9773 29.7415 11.1186 29.7027 11.2447 29.6322C11.3707 29.5616 11.4777 29.4615 11.5564 29.3404C11.6352 29.2193 11.6832 29.0809 11.6965 28.9371C11.7098 28.7933 11.688 28.6484 11.6328 28.5149C11.2406 27.6315 9.16866 23.2175 6.73831 22.7548L3.14197 21.8922C2.91189 21.842 2.67128 21.8847 2.47255 22.011C2.27381 22.1374 2.13305 22.3371 2.08091 22.5668L1.226 26.7199C1.17976 26.9445 1.22347 27.1783 1.34774 27.3709C1.47202 27.5636 1.66693 27.6998 1.89057 27.7503ZM3.61281 23.8053C3.61281 23.8053 6.38669 24.4701 6.40399 24.4731C7.21917 24.6177 8.3426 26.1099 9.20308 27.6052L3.11334 26.2317L3.61281 23.8053ZM54.1971 22.0046C54.0982 21.9416 53.9876 21.8991 53.8719 21.8798C53.7562 21.8605 53.6378 21.8647 53.5238 21.8922L49.9274 22.7548C47.4971 23.2174 45.4252 27.6314 45.0329 28.5148C44.9786 28.6484 44.9573 28.7931 44.9709 28.9366C44.9846 29.0801 45.0327 29.2182 45.1113 29.3391C45.1899 29.4599 45.2965 29.56 45.4221 29.6307C45.5478 29.7015 45.6886 29.7408 45.8327 29.7453C45.8966 29.7453 54.7752 27.7503 54.7752 27.7503C54.9988 27.6998 55.1937 27.5636 55.318 27.3709C55.4422 27.1782 55.486 26.9445 55.4397 26.7199L54.5848 22.5668C54.5611 22.4519 54.5146 22.3429 54.448 22.2463C54.3814 22.1497 54.2961 22.0675 54.1971 22.0046ZM47.4614 27.6055C48.321 26.1103 49.4442 24.6182 50.2618 24.4731C50.2791 24.4701 53.053 23.8053 53.053 23.8053L53.5524 26.2317L47.4614 27.6055Z" fill="#8B8C8E"/>
<path d="M55.4579 44.6246H41.4656C41.7661 44.6236 42.0657 44.5918 42.3597 44.5299C43.4046 44.3102 44.3328 43.7155 44.9691 42.8581C45.6054 42.0007 45.9058 40.94 45.8134 39.8763L55.6461 37.7093C55.8726 37.6592 56.0699 37.5212 56.1947 37.3257C56.3196 37.1302 56.3616 36.8931 56.3118 36.6666C56.2619 36.4401 56.1241 36.2426 55.9287 36.1176C55.7333 35.9925 55.4963 35.9502 55.2697 35.9999L45.319 38.1928C44.8711 37.349 44.1591 36.6751 43.2919 36.2743C42.4247 35.8735 41.4501 35.7678 40.5172 35.9734C39.5842 36.179 38.7444 36.6846 38.126 37.4128C37.5076 38.141 37.1448 39.0517 37.0931 40.0056L32.1056 41.1048C31.8768 41.1535 31.638 41.1106 31.4404 40.9854C31.2428 40.8602 31.1021 40.6626 31.0484 40.4349C30.9185 39.8412 30.7817 39.2049 30.653 38.6011L32.0452 38.2529C32.2704 38.1967 32.4641 38.0533 32.5835 37.8542C32.703 37.6552 32.7385 37.4169 32.6822 37.1916C32.626 36.9664 32.4826 36.7728 32.2835 36.6533C32.0845 36.5338 31.8462 36.4983 31.6209 36.5546L30.2905 36.8873C30.1872 36.3953 30.1121 36.0353 30.0867 35.9133C30.06 35.5817 30.1734 35.2289 30.7647 34.5517C31.3404 33.8929 32.8129 32.6407 36.2074 31.6576C39.52 30.5501 42.383 28.3963 44.3654 25.5206C44.3812 25.4969 44.3959 25.4725 44.4094 25.4473C45.0637 24.2244 47.2794 20.9142 49.6843 20.1967L55.5989 19.2308C55.828 19.1934 56.0328 19.0665 56.1683 18.8781C56.3039 18.6897 56.359 18.4552 56.3216 18.2261C56.2842 17.997 56.1574 17.7922 55.9689 17.6567C55.7805 17.5211 55.546 17.466 55.3169 17.5034L49.35 18.4778C49.3169 18.4831 49.2841 18.4904 49.2518 18.4996C45.7571 19.493 43.1702 24.0658 42.8884 24.5808C41.1249 27.0872 38.6172 28.975 35.7208 29.9763C32.8869 30.7969 30.6588 32.0127 29.4469 33.4C28.802 34.1387 28.2228 34.9821 28.3508 36.1413C28.3538 36.1689 28.3581 36.1963 28.3638 36.2234C28.3638 36.2234 28.8926 38.769 29.339 40.8093C29.4719 41.3963 29.8009 41.9205 30.2716 42.2955C30.7424 42.6705 31.3269 42.8739 31.9288 42.8722C32.1073 42.8722 37.3507 41.7412 37.3507 41.7412C37.6544 42.5826 38.2093 43.3104 38.9402 43.8261C39.6711 44.3419 40.5429 44.6206 41.4374 44.6246H15.2287C16.1233 44.6206 16.995 44.3419 17.726 43.8261C18.4569 43.3104 19.0118 42.5826 19.3155 41.7411C19.3155 41.7411 24.5656 42.8739 24.7417 42.8739C25.343 42.8743 25.9265 42.6701 26.3964 42.2949C26.8663 41.9197 27.1945 41.3958 27.3271 40.8093C27.7736 38.769 28.3023 36.2234 28.3023 36.2234C28.308 36.1963 28.3124 36.1689 28.3153 36.1413C28.4433 34.9821 27.8642 34.1387 27.219 33.4C26.0074 32.0127 23.7793 30.7969 20.9454 29.9763C18.0457 28.9811 15.5363 27.0921 13.7778 24.5808C13.496 24.0658 10.909 19.493 7.41439 18.4996C7.38209 18.4904 7.34928 18.4831 7.31612 18.4778L1.34925 17.5034C1.12026 17.4662 0.885883 17.5215 0.697614 17.657C0.509346 17.7925 0.382597 17.9973 0.345223 18.2262C0.30785 18.4552 0.36291 18.6896 0.498304 18.878C0.633697 19.0664 0.838345 19.1933 1.06727 19.2308L6.98183 20.1969C9.87085 21.0567 12.2333 25.4037 12.257 25.4479C12.2702 25.4727 12.2852 25.4973 12.3008 25.5206C14.2832 28.3963 17.1462 30.5501 20.4588 31.6576C23.8532 32.6408 25.3257 33.8929 25.9012 34.5517C26.4927 35.2289 26.6062 35.5817 26.5795 35.9133C26.554 36.0353 26.479 36.3953 26.3757 36.8873L25.0452 36.5546C24.82 36.4983 24.5817 36.5338 24.3826 36.6533C24.1836 36.7728 24.0402 36.9664 23.9839 37.1917C23.9276 37.4169 23.9632 37.6552 24.0826 37.8542C24.2021 38.0533 24.3958 38.1967 24.621 38.253L26.0131 38.6011C25.8844 39.2049 25.7476 39.8412 25.6177 40.4349C25.5652 40.6609 25.4267 40.8576 25.2316 40.9831C25.0365 41.1087 24.8001 41.1532 24.5727 41.1074L19.573 40.0055C19.5207 39.0519 19.1577 38.1417 18.5393 37.4139C17.9209 36.6862 17.0812 36.1809 16.1485 35.9754C15.2159 35.7698 14.2416 35.8753 13.3746 36.2758C12.5075 36.6762 11.7955 37.3495 11.3472 38.1928L1.39646 35.9999C1.16987 35.9502 0.932835 35.9925 0.73744 36.1176C0.542045 36.2426 0.404272 36.4401 0.354391 36.6666C0.30451 36.8931 0.346602 37.1302 0.471418 37.3257C0.596235 37.5212 0.793565 37.6592 1.02005 37.7093L10.8528 39.8762C10.7604 40.9399 11.0607 42.0007 11.697 42.8581C12.3333 43.7155 13.2616 44.3102 14.3065 44.5299C14.6005 44.5918 14.9001 44.6235 15.2006 44.6246H1.20826C0.976127 44.6246 0.753504 44.7168 0.589362 44.8809C0.425221 45.0451 0.333008 45.2677 0.333008 45.4998C0.333008 45.7319 0.425221 45.9546 0.589362 46.1187C0.753504 46.2829 0.976127 46.3751 1.20826 46.3751H55.4579C55.69 46.3751 55.9127 46.2829 56.0768 46.1187C56.2409 45.9546 56.3331 45.7319 56.3331 45.4998C56.3331 45.2677 56.2409 45.0451 56.0768 44.8809C55.9127 44.7168 55.69 44.6246 55.4579 44.6246ZM38.9007 40.7873C38.828 40.4511 38.8223 40.1038 38.8839 39.7653C38.9454 39.4269 39.0731 39.1038 39.2596 38.8147C39.5432 38.38 39.9493 38.0391 40.4266 37.8352C40.9038 37.6312 41.4309 37.5734 41.9411 37.6689C42.4512 37.7645 42.9216 38.0092 43.2927 38.3721C43.6638 38.7349 43.919 39.1997 44.026 39.7076C44.133 40.2155 44.087 40.7437 43.8938 41.2254C43.7006 41.7072 43.3689 42.1208 42.9406 42.4141C42.5124 42.7073 42.0068 42.867 41.4878 42.8729C40.9688 42.8789 40.4597 42.7308 40.0248 42.4474C39.7376 42.2581 39.4905 42.0141 39.2976 41.7292C39.1047 41.4444 38.9698 41.1243 38.9007 40.7873ZM14.6671 42.817C14.3295 42.7468 14.0092 42.6104 13.7247 42.4155C13.4402 42.2207 13.1972 41.9714 13.0098 41.682C12.7263 41.2471 12.5781 40.738 12.584 40.2189C12.5899 39.6998 12.7495 39.1942 13.0428 38.7658C13.3361 38.3375 13.7498 38.0058 14.2316 37.8126C14.7134 37.6194 15.2417 37.5734 15.7496 37.6805C16.2575 37.7875 16.7223 38.0428 17.0852 38.414C17.448 38.7852 17.6927 39.2557 17.7881 39.766C17.8836 40.2762 17.8256 40.8033 17.6214 41.2806C17.4173 41.7579 17.0763 42.1639 16.6414 42.4473C16.3531 42.6365 16.0302 42.7666 15.6913 42.8301C15.3524 42.8936 15.0042 42.8891 14.6671 42.817Z" fill="#8B8C8E"/>
<path d="M15.1596 21.9998L19.9827 25.2215C20.1765 25.3477 20.412 25.3931 20.6388 25.3479C20.8655 25.3028 21.0656 25.1706 21.1963 24.9798C21.3252 24.7868 21.3722 24.5505 21.3269 24.3228C21.2816 24.0952 21.1477 23.8949 20.9547 23.7659L18.1169 21.8703L21.1954 21.5182C21.3355 21.4996 21.4691 21.4479 21.585 21.3672C21.701 21.2866 21.796 21.1793 21.8621 21.0545C21.9283 20.9297 21.9636 20.7908 21.9651 20.6496C21.9667 20.5083 21.9345 20.3687 21.8711 20.2425L20.8635 18.3191L24.4574 19.092C24.5882 19.1173 24.7229 19.1128 24.8517 19.0791C24.9806 19.0453 25.1002 18.9831 25.2017 18.8969C25.3032 18.8107 25.3841 18.7029 25.4384 18.5813C25.4927 18.4597 25.519 18.3274 25.5153 18.1943L25.3175 14.0734L27.9766 16.3406C28.0714 16.4192 28.1814 16.4772 28.2998 16.5109C28.4182 16.5446 28.5423 16.5532 28.6642 16.5362C28.7861 16.5193 28.9032 16.4771 29.0079 16.4123C29.1126 16.3476 29.2026 16.2617 29.2723 16.1602L31.5751 12.7067L32.5417 17.2887C32.5747 17.4328 32.6433 17.5663 32.7412 17.677C32.839 17.7878 32.9631 17.8722 33.102 17.9227C33.2409 17.9732 33.3903 17.988 33.5364 17.9659C33.6825 17.9438 33.8208 17.8855 33.9386 17.7962L36.8552 15.5036L35.2428 20.5696C35.204 20.7015 35.1964 20.8406 35.2204 20.9759C35.2444 21.1113 35.2994 21.2392 35.3812 21.3497C35.4629 21.4602 35.5691 21.5503 35.6915 21.6129C35.8139 21.6755 35.9491 21.7089 36.0866 21.7105L38.7889 21.6793L37.2916 23.0906C37.1227 23.2498 37.0239 23.4695 37.0169 23.7015C37.01 23.9335 37.0955 24.1588 37.2547 24.3277C37.4138 24.4967 37.6336 24.5955 37.8656 24.6024C38.0976 24.6093 38.3228 24.5238 38.4917 24.3646L40.2974 22.6624C40.7931 22.2826 41.244 21.8476 41.6413 21.3658C42.0354 20.7742 41.8775 19.9029 41.0103 19.9029L37.2777 19.9461L39.3862 13.3221C39.4376 13.1446 39.4321 12.9554 39.3703 12.7812C39.3085 12.607 39.1936 12.4566 39.0417 12.3513C38.8899 12.2459 38.7088 12.1908 38.524 12.1939C38.3392 12.1969 38.16 12.2579 38.0117 12.3682L33.9636 15.5502L32.8577 10.309C32.8191 10.1426 32.7331 9.99103 32.6101 9.87259C32.4871 9.75414 32.3324 9.67392 32.1647 9.64164C31.997 9.60937 31.8235 9.62642 31.6654 9.69074C31.5072 9.75506 31.371 9.86389 31.2735 10.004L28.3627 14.3696L24.9142 11.4295C24.7833 11.3219 24.6243 11.2543 24.456 11.2347C24.2878 11.2152 24.1174 11.2445 23.9654 11.3191C23.8133 11.3938 23.686 11.5107 23.5986 11.6558C23.5112 11.8009 23.4675 11.9681 23.4726 12.1374L23.7128 17.1413L19.4055 16.215C19.2436 16.1835 19.0761 16.198 18.922 16.2568C18.7679 16.3156 18.6334 16.4164 18.5336 16.5477C18.4338 16.6791 18.3727 16.8357 18.3573 16.9999C18.342 17.1641 18.3729 17.3294 18.4465 17.477L19.7287 19.9241L15.5462 20.4025C15.3681 20.4229 15.2006 20.4975 15.0662 20.6162C14.9319 20.7348 14.8372 20.8919 14.7951 21.0661C14.7529 21.2404 14.7652 21.4233 14.8304 21.5903C14.8956 21.7573 15.0105 21.9002 15.1596 21.9998Z" fill="#8B8C8E"/>
</g>
<defs>
<clipPath id="clip0_231_1674">
<rect width="56" height="56" fill="white" transform="translate(0.333008)"/>
</clipPath>
</defs>
</svg>
