<svg width="56" height="56" viewBox="0 0 56 56" fill="none" xmlns="http://www.w3.org/2000/svg">
<g clip-path="url(#clip0_231_300)">
<path d="M43.8747 7.375H27.833C25.8851 7.375 24.3955 8.86458 24.3955 10.8125V13.1042C24.3955 15.0521 25.8851 16.5417 27.833 16.5417H43.8747C45.8226 16.5417 47.3122 15.0521 47.3122 13.1042V10.8125C47.3122 8.86458 45.8226 7.375 43.8747 7.375ZM45.0205 13.1042C45.0205 13.7917 44.5622 14.25 43.8747 14.25H27.833C27.1455 14.25 26.6872 13.7917 26.6872 13.1042V10.8125C26.6872 10.125 27.1455 9.66667 27.833 9.66667H43.8747C44.5622 9.66667 45.0205 10.125 45.0205 10.8125V13.1042Z" fill="#8B8C8E"/>
<path d="M46.1664 2.79167H22.333C21.0726 2.79167 19.9268 3.25 19.1247 4.05208L18.208 4.96875L14.7705 1.53125C13.3955 0.15625 11.2184 0.15625 9.95801 1.53125L4.80176 6.6875C3.42676 8.0625 3.42676 10.2396 4.80176 11.5L8.23926 14.9375L7.55176 15.625C6.52051 16.4271 6.06217 17.6875 6.06217 18.9479V49.8854C6.06217 53.0938 8.58301 55.6146 11.7913 55.6146H46.1664C49.3747 55.6146 51.8955 53.0938 51.8955 49.8854V8.52083C51.8955 5.3125 49.3747 2.79167 46.1664 2.79167ZM49.6039 49.7708C49.6039 51.7188 48.1143 53.2083 46.1664 53.2083H11.7913C9.84342 53.2083 8.35384 51.7188 8.35384 49.7708V18.8333C8.35384 18.2604 8.58301 17.5729 9.04134 17.2292C20.0413 6.45833 14.5413 11.8438 20.7288 5.77083C21.1872 5.3125 21.7601 5.08333 22.333 5.08333H46.1664C48.1143 5.08333 49.6039 6.57292 49.6039 8.52083V49.7708Z" fill="#8B8C8E"/>
<path d="M26.7497 28.25C26.4997 28.5 22.333 33.25 22.333 38C22.333 40.75 24.583 43 27.333 43C30.083 43 32.333 40.75 32.333 38C32.333 33.25 28.1663 28.5 27.9163 28.25C27.6663 27.9167 26.9997 27.9167 26.7497 28.25Z" fill="#8B8C8E"/>
<path d="M39.291 18.8333H16.3743C13.8535 18.8333 11.791 20.8958 11.791 23.4166V46.3333C11.791 48.8541 13.8535 50.9166 16.3743 50.9166H39.291C41.8118 50.9166 43.8743 48.8541 43.8743 46.3333V23.4166C43.8743 20.8958 41.8118 18.8333 39.291 18.8333ZM41.5827 46.3333C41.5827 47.5937 40.5514 48.6249 39.291 48.6249H16.3743C15.1139 48.6249 14.0827 47.5937 14.0827 46.3333V23.4166C14.0827 22.1562 15.1139 21.1249 16.3743 21.1249H39.291C40.5514 21.1249 41.5827 22.1562 41.5827 23.4166V46.3333Z" fill="#8B8C8E"/>
</g>
<defs>
<clipPath id="clip0_231_300">
<rect width="55" height="55" fill="white" transform="translate(0.333008 0.5)"/>
</clipPath>
</defs>
</svg>
