<svg width="45" height="56" viewBox="0 0 45 56" fill="none" xmlns="http://www.w3.org/2000/svg">
<path d="M44.5027 28.9173C37.3645 20.6972 25.4519 6.77362 25.3225 6.64426L24.9932 6.25619L15.7501 5.87988H15.9147V0H3.14359V5.87988H4.03734C2.22634 6.16212 0.862194 7.46744 0.862194 9.03149L0.333008 52.719C0.333008 54.236 1.12092 55.024 1.79123 55.4238C2.59089 55.9059 3.5199 56 4.16669 56C4.47244 56 4.7194 55.9765 4.87228 55.9647H40.8101C42.9622 55.9647 44.7144 54.5183 44.7144 52.7425V29.176L44.4909 28.9173H44.5027ZM42.3506 52.7425C42.3506 53.4364 41.6686 54.0008 40.8219 54.0008H4.66061L4.55476 54.0244C4.55476 54.0244 4.39012 54.0479 4.16669 54.0479C3.94325 54.0479 3.49639 54.0244 3.19064 53.8362C2.87313 53.6481 2.72024 53.2717 2.72024 52.7308L3.24942 9.04326C3.24942 8.34944 3.94325 7.78496 4.7782 7.78496H14.2683L23.7232 8.16128C25.6871 10.4544 35.871 22.3318 42.3506 29.7992V52.7425Z" fill="#8B8C8E"/>
<path d="M12.6338 9.45483L13.1747 10.7484C13.1747 10.7484 15.0445 15.2759 16.9849 19.7094C18.1256 22.32 19.0664 24.4015 19.7955 25.895C21.2184 28.8232 21.5947 29.3053 22.5473 29.3053H38.7875L35.8946 25.848L35.7182 25.6128C23.688 9.45484 18.7489 9.45483 14.3978 9.45483H12.6338ZM33.5074 26.4007V27.3414H23.1353C22.0769 25.6598 18.8665 18.3805 15.9853 11.454C19.4074 11.7009 23.8526 13.4767 33.5191 26.4007H33.5074Z" fill="#8B8C8E"/>
<path d="M21.4889 31.2458C16.444 31.2458 12.3516 35.4794 12.3516 40.7007C12.3516 45.922 16.444 50.1556 21.4889 50.1556C26.5338 50.1556 30.638 45.922 30.638 40.7007C30.638 35.4794 26.5456 31.2458 21.4889 31.2458ZM21.4889 46.8628C19.5133 46.8628 17.9139 45.2047 17.9139 43.1585C17.9139 41.1123 21.4889 34.5268 21.4889 34.5268C21.4889 34.5268 25.0639 41.1123 25.0639 43.1585C25.0639 45.2047 23.4645 46.8628 21.4889 46.8628Z" fill="#8B8C8E"/>
</svg>
